<?xml version="1.0" standalone="no"?>
<!DOCTYPE svg PUBLIC "-//W3C//DTD SVG 1.1//EN" "http://www.w3.org/Graphics/SVG/1.1/DTD/svg11.dtd" >
<svg xmlns="http://www.w3.org/2000/svg" xmlns:xlink="http://www.w3.org/1999/xlink" version="1.1">
<metadata>
Created by FontForge 20170910 at Tue Mar 22 01:18:19 2011
 By Jimmy Wärting
Copyright (c) 2009-2011, Understanding Limited (dave@understandinglimited.com),
Copyright (c) 2010-2011, Jakub Steiner (jimmac@gmail.com).

This Font Software is licensed under the SIL Open Font License, Version 1.1.
This license is copied below, and is also available with a FAQ at:
http://scripts.sil.org/OFL
</metadata>
<defs>
<font id="Cantarell-Regular" horiz-adv-x="634" >
  <font-face 
    font-family="Cantarell"
    font-weight="400"
    font-stretch="normal"
    units-per-em="1000"
    panose-1="2 0 5 3 0 0 0 0 0 0"
    ascent="800"
    descent="-200"
    x-height="480"
    cap-height="694"
    bbox="-59 -278 982 1058"
    underline-thickness="56"
    underline-position="-169"
    unicode-range="U+0020-FB04"
  />
<missing-glyph horiz-adv-x="364" 
d="M33 0v666h265v-666h-265zM66 33h199v600h-199v-600z" />
    <glyph glyph-name=".notdef" horiz-adv-x="364" 
d="M33 0v666h265v-666h-265zM66 33h199v600h-199v-600z" />
    <glyph glyph-name=".null" horiz-adv-x="0" 
 />
    <glyph glyph-name="nonmarkingreturn" horiz-adv-x="333" 
 />
    <glyph glyph-name="space" unicode=" " horiz-adv-x="273" 
 />
    <glyph glyph-name="exclam" unicode="!" horiz-adv-x="317" 
d="M117 694h83v-470h-83v470zM110 98h98v-98h-98v98z" />
    <glyph glyph-name="quotedbl" unicode="&#x22;" horiz-adv-x="388" 
d="M54 738h90v-209h-90v209zM244 738h90v-209h-90v209z" />
    <glyph glyph-name="numbersign" unicode="#" horiz-adv-x="684" 
d="M177 694h78v-191h175v191h78v-191h155v-73h-155v-172h155v-73h-155v-200h-78v200h-175v-200h-78v200h-154v73h154v172h-155v73h155v191zM255 258h175v172h-175v-172z" />
    <glyph glyph-name="dollar" unicode="$" horiz-adv-x="585" 
d="M355 611l32 -3q4 0 10.5 -1.5t15 -3t12.5 -2.5l11 -3l10 -4l12 -3l-20 -61q-66 18 -107 18q-66 0 -94 -18q-10 -6 -20.5 -21t-10.5 -35q0 -34 72 -58q96 -32 130.5 -49t55.5 -44t21 -53t-4.5 -46t-20.5 -42q-39 -57 -131 -69v-145h-59v142q-74 2 -159 36l22 61
q46 -20 74 -27t64 -7t63 6t45 24q18 19 18 43q0 40 -43 56q-7 3 -21.5 8t-26.5 9.5t-44 14.5q-57 17 -98 47t-41 88q0 63 65 107q33 20 82 29v133h59v-127h26z" />
    <glyph glyph-name="percent" unicode="%" horiz-adv-x="648" 
d="M223 519q0 39 -6.5 58t-20 30.5t-39 11.5t-43.5 -19.5t-18 -56.5q0 -65 22 -87q19 -17 42.5 -17t43 20.5t19.5 59.5zM160 666q79 0 103 -75q8 -27 8 -58q0 -64 -31.5 -101.5t-79.5 -37.5t-80 33.5t-32 101t33 102.5t79 35zM503 258q-9 4 -28.5 4t-41 -21.5t-21.5 -59.5
q0 -63 23 -85.5t47.5 -22.5t45.5 23t21 74q0 70 -46 88zM597 180q0 -73 -34 -113t-81.5 -40t-82 34.5t-34.5 104.5t35.5 106.5t77.5 36.5t80.5 -28t38.5 -101zM515 694h83l-473 -694h-83z" />
    <glyph glyph-name="ampersand" unicode="&#x26;" horiz-adv-x="775" 
d="M335 703h6q117 0 155 -77q11 -22 11 -51q0 -12 -2 -24q-6 -44 -53 -93l-15 -15q-12 -10 -19 -16l-63 -50l170 -181l158 172l46 -46l-158 -175l138 -147h-99l-95 98q-53 -51 -80 -69q-67 -45 -155 -51q-11 -1 -21 -1q-73 0 -120 41q-51 45 -51 114v5q3 103 84 178
q13 12 56 47l18 14l-38 41q-61 66 -61 130q0 20 6 39q16 57 70.5 87t111.5 30zM310 425l43 33q33 25 54 49q20 23 20 46q0 48 -38 67q-24 13 -51 13q-13 0 -27 -3q-42 -9 -62 -35t-20 -52q0 -32 29 -64q6 -7 27 -28zM469 146l-176 182l-50 -41q-74 -62 -74 -127q0 -6 1 -12
q4 -45 38.5 -72t80.5 -27q80 0 164 81z" />
    <glyph glyph-name="quotesingle" unicode="'" horiz-adv-x="197" 
d="M54 738h90v-209h-90v209z" />
    <glyph glyph-name="parenleft" unicode="(" horiz-adv-x="362" 
d="M259 756l64 -34q-63 -104 -97 -220t-33 -221q0 -106 33 -221t97 -218l-63 -41q-73 119 -113 243t-40 238q0 228 152 474z" />
    <glyph glyph-name="parenright" unicode=")" horiz-adv-x="362" 
d="M104 756q151 -248 151 -475q0 -118 -42 -242t-111 -238l-63 41q130 214 130 439q0 106 -33.5 221.5t-96.5 219.5z" />
    <glyph glyph-name="asterisk" unicode="*" horiz-adv-x="583" 
d="M250 693h83l-8 -155l130 86l41 -73l-139 -70l139 -69l-41 -73l-130 86l8 -155h-83l9 155l-130 -86l-41 73l139 69l-139 70l41 73l130 -86z" />
    <glyph glyph-name="plus" unicode="+" horiz-adv-x="683" 
d="M306 602h72v-247h245v-67h-245v-247h-72v247h-245v67h245v247z" />
    <glyph glyph-name="comma" unicode="," horiz-adv-x="278" 
d="M98 83h88l-78 -190h-87z" />
    <glyph glyph-name="hyphen" unicode="-" horiz-adv-x="400" 
d="M55 355h290v-67h-290v67z" />
    <glyph glyph-name="period" unicode="." horiz-adv-x="278" 
d="M88 103h102v-103h-102v103z" />
    <glyph glyph-name="slash" unicode="/" horiz-adv-x="354" 
d="M262 694h83l-242 -738h-83z" />
    <glyph glyph-name="zero" unicode="0" 
d="M404 599q-38 29 -80 29h-5q-87 0 -137 -78q-47 -73 -46 -189v-14q4 -193 103 -259q37 -25 80.5 -25t79.5 27q96 71 99 253v11q0 173 -94 245zM54 343v13q0 162 74 254q75 93 190 93h7q57 -2 108 -30q148 -83 148 -318v-12q-3 -168 -78 -261q-34 -43 -83 -67.5t-103 -24.5
t-104 26q-105 54 -141 192q-16 61 -18 135z" />
    <glyph glyph-name="one" unicode="1" 
d="M290 694h96v-621h161v-73h-404v73h163v541l-153 -60l-31 71z" />
    <glyph glyph-name="two" unicode="2" 
d="M97 644q107 52 217 54q3 0 5 1q106 0 171 -63q50 -50 50 -114q0 -10 -1 -20q-6 -49 -34.5 -86t-72 -74t-82.5 -70q-66 -58 -95 -106t-44 -93h342v-73h-443v45q33 104 105 194q58 71 142 137l41 34q45 39 52 69q4 14 4 27q0 42 -37 78q-45 44 -117 43h-9q-36 -1 -96 -20
l-79 -25z" />
    <glyph glyph-name="three" unicode="3" 
d="M399 380q137 -39 137 -167q0 -106 -76.5 -170.5t-192.5 -64.5h-2q-86 0 -179 38l23 67q100 -28 167.5 -28t121.5 39t54 103t-64 104q-53 33 -148 33h-10v71q123 5 168 58q24 28 24 66t-37 68t-102.5 30t-155.5 -41l-27 66q102 50 194 50t152 -46.5t60 -117.5
q0 -54 -29 -97t-78 -61z" />
    <glyph glyph-name="four" unicode="4" 
d="M339 694h116v-453h121v-73h-121v-168h-80v168h-316v55zM375 241v374l-221 -374h221z" />
    <glyph glyph-name="five" unicode="5" 
d="M115 694h418v-73h-339l1 -190q58 6 102 6q40 0 69 -5q123 -22 169 -118q20 -46 20 -92q0 -105 -78 -170q-49 -40 -105 -51q-54 -11 -118 -11q-78 0 -170 17l16 74q81 -17 148 -17q43 0 81 7q45 8 79 32q60 43 61 110q0 11 -2 23q-5 44 -41 76q-57 52 -163 52
q-12 0 -25 -1q-49 -3 -123 -11v342z" />
    <glyph glyph-name="six" unicode="6" 
d="M173 388q60 66 160 66h3q102 -1 160 -68q54 -62 54 -150v-14q-6 -103 -77 -172q-68 -62 -157 -62t-141 43t-71 101t-21 135v17q0 323 224 395q64 21 136 21q30 0 60 -4l-6 -72q-29 3 -55 3q-73 0 -130 -24q-103 -42 -130 -163q-4 -18 -9 -52zM384 371q-33 16 -67 16
q-28 0 -58 -11q-27 -9 -51 -32q-44 -46 -44 -111q0 -68 46 -123q45 -54 108 -54t105.5 48.5t46.5 112.5v12q0 57 -34 101q-22 27 -52 41z" />
    <glyph glyph-name="seven" unicode="7" 
d="M571 694v-52l-324 -642h-97l319 616h-405v78h507z" />
    <glyph glyph-name="eight" unicode="8" 
d="M424 587q-34 46 -118 46q-42 0 -77 -29t-35 -68q0 -73 116 -110q12 -4 19 -6l12 -4q66 42 83.5 65t17.5 52.5t-18 53.5zM303 354q-67 -19 -106 -62.5t-39 -96t46 -92.5t116.5 -40t113 37.5t42.5 93.5q0 117 -173 160zM212 386q-100 50 -100 159q0 24 13.5 54t40.5 54
q56 50 153 50t150 -45t53 -124q0 -44 -23 -77.5t-75 -69.5q71 -32 104.5 -80.5t33.5 -110.5t-41 -115q-69 -91 -201 -91q-68 0 -124.5 25t-89.5 72t-33 104t37 110.5t102 84.5z" />
    <glyph glyph-name="nine" unicode="9" 
d="M319 704q87 0 139.5 -43.5t72 -103t21.5 -143.5v-10q0 -80 -20 -164q-22 -90 -74 -145q-95 -102 -270 -102h-13q-23 0 -44 3l6 72q30 -3 57 -3q138 0 204 77q39 47 52 120q6 46 8 58q-26 -28 -67.5 -46t-91.5 -18q-103 2 -161 68q-54 62 -54 144v11q6 98 77 163
q71 62 158 62zM377 619q-32 17 -63 17q-29 0 -57 -14q-25 -11 -48 -36q-42 -45 -45 -102v-8q0 -52 34 -95q46 -56 114 -57h5q64 0 109 43q44 44 44 101q0 60 -43 111q-23 26 -50 40z" />
    <glyph glyph-name="colon" unicode=":" horiz-adv-x="278" 
d="M88 103h102v-103h-102v103zM88 485h102v-103h-102v103z" />
    <glyph glyph-name="semicolon" unicode=";" horiz-adv-x="278" 
d="M88 485h102v-103h-102v103zM98 83h88l-78 -190h-87z" />
    <glyph glyph-name="less" unicode="&#x3c;" horiz-adv-x="523" 
d="M475 551v-76l-341 -172l341 -164v-80l-426 201v81z" />
    <glyph glyph-name="equal" unicode="=" horiz-adv-x="683" 
d="M107 466h469v-73h-469v73zM107 245h469v-74h-469v74z" />
    <glyph glyph-name="greater" unicode="&#x3e;" horiz-adv-x="523" 
d="M49 551l426 -210v-81l-426 -201v80l341 164l-341 172v76z" />
    <glyph glyph-name="question" unicode="?" horiz-adv-x="510" 
d="M152 98h98v-98h-98v98zM179 632q-51 0 -105 -23l-25 59q69 34 165 34t155 -42t59 -122t-37 -126q-14 -18 -37 -39l-39 -34q-45 -39 -59 -75t-14 -73h-83q0 83 32 126t67 72q37 29 52 44q37 36 37 89q0 110 -168 110z" />
    <glyph glyph-name="at" unicode="@" horiz-adv-x="1025" 
d="M650 54q-57 -65 -144 -65q-62 0 -112 31q-97 62 -97 204q0 122 67.5 189t167.5 67q57 0 120 -25l8 20h52v-329q0 -66 33 -83q13 -7 33 -7q40 0 71 53q32 58 32 171t-49 193q-86 143 -292 143q-167 0 -272 -105q-48 -48 -76.5 -118.5t-28.5 -146.5q0 -150 71 -244
q69 -90 185 -119q46 -11 95 -12q75 0 156 27v-67q-96 -30 -182 -30q-62 -1 -118 15q-134 36 -213.5 148t-79.5 272q1 98 35 182q68 165 243 233q86 33 168 33q148 0 236 -44q129 -66 175 -190q30 -76 30 -149q0 -182 -88 -263q-52 -49 -111 -49q-82 0 -115 65zM636 111
l-1 12v277q-44 17 -94 17q-72 0 -114 -51t-42 -134.5t36 -128.5t103 -45q44 0 71 17t41 36z" />
    <glyph glyph-name="A" unicode="A" horiz-adv-x="648" 
d="M277 694h94l247 -694h-84l-70 202h-287l-70 -202h-77zM321 613l-119 -339h236z" />
    <glyph glyph-name="B" unicode="B" horiz-adv-x="632" 
d="M173 630v-233l88 3q184 4 184 123q0 78 -79 100q-24 7 -60 7h-133zM173 333v-260h153q54 0 109 23q19 8 34 23q31 31 31 83q0 66 -55 104q-49 33 -129 34q-11 0 -22 -1zM90 694h244q96 0 143.5 -50.5t47.5 -116.5q0 -42 -28.5 -84t-61.5 -55q64 -12 105.5 -62.5
t41.5 -115.5q0 -87 -68 -148.5t-199 -61.5h-225v694z" />
    <glyph glyph-name="C" unicode="C" horiz-adv-x="692" 
d="M203 346q0 -166 132 -246q61 -35 143 -35t163 33l21 -66q-92 -42 -207 -42t-202 58q-28 18 -50 41q-94 100 -94 256q0 75 26 142q52 131 180 184q62 26 129.5 26t113.5 -9t95 -27l-23 -68q-51 18 -86.5 24t-84.5 6t-99.5 -21.5t-84.5 -58.5q-72 -79 -72 -197z" />
    <glyph glyph-name="D" unicode="D" horiz-adv-x="762" 
d="M127 693h229q166 0 257.5 -88.5t91.5 -257t-97 -258t-284 -89.5h-197v693zM609 354q0 266 -274 266h-116v-546h117q157 0 223 90q50 68 50 190z" />
    <glyph glyph-name="E" unicode="E" horiz-adv-x="556" 
d="M90 0v694h406v-73h-323v-227h296v-73h-296v-248h323v-73h-406z" />
    <glyph glyph-name="F" unicode="F" horiz-adv-x="551" 
d="M173 621v-227h289v-73h-289v-321h-83v694h401v-73h-318z" />
    <glyph glyph-name="G" unicode="G" horiz-adv-x="758" 
d="M576 601q-72 26 -135 26q-77 0 -138 -40q-122 -80 -125 -233q0 -3 -1 -6q0 -76 35 -141q36 -67 101 -105t153 -38t147 57v177h-197v68h278l-3 -272q-90 -103 -256 -103h-8q-94 1 -168.5 44t-119.5 129q-44 83 -45 178q0 3 1 6q2 100 45 180.5t119 125.5q77 45 174 45
q39 0 83 -7q76 -13 146 -52l-33 -62q-17 9 -53 23z" />
    <glyph glyph-name="H" unicode="H" horiz-adv-x="740" 
d="M562 692h88v-692h-88v311h-385v-311h-87v692h87v-306h385v306z" />
    <glyph glyph-name="I" unicode="I" horiz-adv-x="328" 
d="M140 694h83v-694h-83v694z" />
    <glyph glyph-name="J" unicode="J" horiz-adv-x="449" 
d="M275 693h83v-485q0 -50 -9.5 -87.5t-38.5 -68.5q-54 -57 -153 -60h-13q-49 0 -95 11l13 70q39 -9 71 -9q37 0 67 12q55 22 70 76q5 20 5 52v489z" />
    <glyph glyph-name="K" unicode="K" horiz-adv-x="673" 
d="M128 694h83v-694h-83v694zM516 694h104l-293 -331l312 -363h-107l-310 356z" />
    <glyph glyph-name="L" unicode="L" horiz-adv-x="537" 
d="M128 694h83v-621h311v-73h-394v694z" />
    <glyph glyph-name="M" unicode="M" horiz-adv-x="855" 
d="M90 694h117l222 -421l227 421h109v-694h-83v575l-213 -376h-83l-213 376v-575h-83v694z" />
    <glyph glyph-name="N" unicode="N" horiz-adv-x="746" 
d="M90 694h105l378 -581v581h83v-694h-105l-378 582v-582h-83v694z" />
    <glyph glyph-name="O" unicode="O" horiz-adv-x="811" 
d="M419 626q-68 0 -121 -35.5t-83.5 -99.5t-30.5 -145t30.5 -145t83.5 -99.5t121 -35.5t121 35.5t83.5 99.5t30.5 144.5t-30 145t-83.5 100t-121.5 35.5zM90 345.5q0 106.5 40 187t115.5 124t173 43.5t173 -43.5t116 -125t40.5 -186.5t-41 -185.5t-116 -124t-172.5 -43.5
t-172.5 43.5t-115.5 123.5t-40.5 186.5z" />
    <glyph glyph-name="P" unicode="P" horiz-adv-x="633" 
d="M128 694h218q70 0 102 -6q54 -10 88 -43q52 -52 52 -130q0 -13 -1 -26q-15 -145 -128 -182q-59 -20 -157 -20q-42 0 -91 4v-291h-83v694zM211 364q49 -4 88 -4q20 0 38 1q53 3 76 9q52 13 76 64q14 29 15 60q0 23 -8 46q-24 69 -108 78q-20 3 -87 3h-90v-257z" />
    <glyph glyph-name="Q" unicode="Q" horiz-adv-x="816" 
d="M202 620q88 81 221 81h5q64 0 126 -26t106 -74q86 -97 86 -249q2 -153 -72 -245l88 -87l-44 -47l-92 86q-83 -66 -203 -66h-5q-140 3 -230 92q-46 46 -70 115t-24 145.5t26.5 149.5t81.5 125zM618 162q44 67 44 166q0 6 -1 13q-3 108 -38 167.5t-89 89.5t-112 30
q-111 -2 -177 -77q-65 -74 -66 -193v-6q3 -123 63 -197q33 -42 82.5 -65.5t99.5 -24.5h6q84 0 142 46l-154 145l50 53z" />
    <glyph glyph-name="R" unicode="R" 
d="M307 290l-61 -1h-73v-289h-83v694h254q57 0 91.5 -10t61.5 -39q51 -54 51 -148.5t-62 -151.5q-36 -35 -94 -47l196 -298h-93zM173 362h83q61 0 83 2q86 8 114 72q12 27 12 56q0 25 -9 51q-23 60 -88 73q-25 5 -68 5h-127v-259z" />
    <glyph glyph-name="S" unicode="S" horiz-adv-x="599" 
d="M94 576q67 124 260 124q71 0 162 -28l-27 -75q-87 25 -156 25t-118.5 -30t-49.5 -80.5t55.5 -79t112 -45.5t86.5 -32t62 -38q58 -43 58 -123q0 -58 -38 -110q-44 -57 -127 -81q-46 -12 -104.5 -12t-103.5 11t-106 35l29 81q124 -46 195.5 -46t118 30t46.5 80q0 63 -74 96
q-28 13 -68 26t-83 29t-75 35t-53.5 52.5t-21.5 76t20 79.5z" />
    <glyph glyph-name="T" unicode="T" horiz-adv-x="585" 
d="M38 694h546v-73h-232v-621h-83v621h-231v73z" />
    <glyph glyph-name="U" unicode="U" horiz-adv-x="709" 
d="M90 265l1 38v391h83v-450q0 -45 8 -74q6 -30 30 -56q47 -52 142 -52t144 55q22 25 29.5 53.5t7.5 73.5v450h83v-429l1 -42q-2 -97 -44 -150q-65 -83 -221 -83t-221 83q-43 52 -43 150v42z" />
    <glyph glyph-name="V" unicode="V" horiz-adv-x="647" 
d="M30 694h99l198 -606l198 606h92l-242 -694h-103z" />
    <glyph glyph-name="W" unicode="W" horiz-adv-x="1005" 
d="M25 694h89l175 -583l175 583h84l180 -583l170 583h82l-208 -694h-88l-183 580l-170 -580h-88z" />
    <glyph glyph-name="X" unicode="X" horiz-adv-x="660" 
d="M526 694h95l-219 -330l246 -364h-107l-195 292l-195 -292h-102l250 362l-221 332h101l176 -261z" />
    <glyph glyph-name="Y" unicode="Y" horiz-adv-x="609" 
d="M44 694h98l177 -287l180 287h93l-236 -365v-329h-83v329z" />
    <glyph glyph-name="Z" unicode="Z" horiz-adv-x="652" 
d="M82 694h531v-53l-435 -568h448v-73h-558v54l426 567h-412v73z" />
    <glyph glyph-name="bracketleft" unicode="[" horiz-adv-x="370" 
d="M346 -200h-224v938h224v-73h-144v-792h144v-73z" />
    <glyph glyph-name="backslash" unicode="\" horiz-adv-x="354" 
d="M10 694h83l242 -738h-83z" />
    <glyph glyph-name="bracketright" unicode="]" horiz-adv-x="370" 
d="M248 -200h-224v73h144v792h-144v73h224v-938z" />
    <glyph glyph-name="asciicircum" unicode="^" horiz-adv-x="722" 
d="M354 752l158 -172l-45 -43l-119 129l-119 -126l-43 38z" />
    <glyph glyph-name="underscore" unicode="_" horiz-adv-x="566" 
d="M73 73h420v-73h-420v73z" />
    <glyph glyph-name="grave" unicode="`" horiz-adv-x="547" 
d="M168 774l247 -151l-31 -53l-250 144z" />
    <glyph glyph-name="a" unicode="a" horiz-adv-x="491" 
d="M73 459q78 30 162.5 30t125 -27t53.5 -60.5t13 -88.5v-313h-61l-18 45q-67 -57 -148 -57q-8 0 -16 1q-52 3 -95.5 38t-43.5 92.5t34 94.5q34 35 84 49q72 18 182 21v4q0 51 -9 75q-21 57 -110 57q-44 0 -106 -14q-44 -11 -47 -12v65zM345 109v115q-98 -3 -128 -9
q-57 -13 -81 -51q-11 -18 -10 -35q0 -21 15 -41q11 -16 36 -28q14 -7 37 -7q18 0 38 4q50 9 93 52z" />
    <glyph glyph-name="b" unicode="b" horiz-adv-x="553" 
d="M257 59q76 0 116 49t40 135t-41.5 136.5t-115.5 50.5q-54 0 -108 -23v-318q54 -30 109 -30zM148 471q55 23 116 23q100 0 167 -66.5t67 -191.5q0 -151 -101 -214q-50 -31 -121.5 -31t-137.5 43l-14 -34h-59v671h83v-200z" />
    <glyph glyph-name="c" unicode="c" horiz-adv-x="467" 
d="M297 491h5q58 0 125 -29l-20 -58q-55 19 -101 19h-6q-165 -7 -165 -176q0 -10 1 -21q6 -105 75 -145q32 -18 81 -24q11 -1 22 -1q40 0 88 16l19 -55q-69 -27 -131 -27h-5q-126 0 -185 83q-41 58 -43 165v5q0 104 58 174q61 73 182 74z" />
    <glyph glyph-name="d" unicode="d" horiz-adv-x="576" 
d="M297 59q55 0 109 30v318q-54 23 -108 23q-74 0 -115.5 -50.5t-41.5 -136.5t40 -135t116 -49zM406 471v200h83v-671h-59l-14 34q-66 -43 -137.5 -43t-121.5 31q-101 63 -101 214q0 125 67 191.5t167 66.5q61 0 116 -23z" />
    <glyph glyph-name="e" unicode="e" horiz-adv-x="523" 
d="M471 218h-328q4 -68 46 -113t135 -45q64 0 133 22v-65q-75 -26 -155 -26q-179 0 -227 139q-16 45 -16 103q0 106 56 182q58 75 163 75q147 0 186 -132q12 -39 12 -88v-44zM145 281h249q0 65 -28.5 104.5t-80.5 39.5q-51 0 -81 -25q-50 -40 -59 -119z" />
    <glyph glyph-name="f" unicode="f" horiz-adv-x="372" 
d="M110 622q43 76 145 76q51 0 117 -19l-13 -60q-45 13 -78 13q-22 0 -38 -6q-58 -20 -65 -67q-2 -14 -2 -31v-46h161v-63h-161l1 -419h-81l-1 419h-70v63h70v49q0 64 15 91z" />
    <glyph glyph-name="g" unicode="g" horiz-adv-x="542" 
d="M202 475q39 16 81 16q54 0 114 -27l23 -10l10 28h56v-505q0 -64 -13.5 -104t-51 -76t-95.5 -51q-38 -10 -79 -10q-52 0 -108 17q-26 8 -39 14l22 58q63 -23 116 -23q42 0 76 14q80 32 90 126q2 14 2 67v14q-52 -29 -112 -32h-15q-112 0 -176 91q-34 49 -39 119
q-1 17 -1 33q0 115 57 181q33 39 82 60zM406 83v317q-65 27 -115 27q-46 0 -80 -23q-57 -38 -68 -120q-3 -21 -2 -40q0 -58 23 -105q20 -43 60 -65q33 -18 74 -18q8 0 18 1q52 5 90 26z" />
    <glyph glyph-name="h" unicode="h" horiz-adv-x="520" 
d="M379 310q0 62 -24.5 89.5t-81 27.5t-130.5 -36v-391h-83v670h83v-218q88 44 161.5 44t114.5 -44t41 -123v-329h-81v310z" />
    <glyph glyph-name="i" unicode="i" horiz-adv-x="202" 
d="M60 483h82v-483h-82v483zM60 669h82v-83h-82v83z" />
    <glyph glyph-name="j" unicode="j" horiz-adv-x="237" 
d="M165 -64q0 -60 -7 -78q-20 -51 -46.5 -77t-76.5 -44l-30 61q79 38 79 125v6v3l-1 550h80zM82 669h82v-83h-82v83z" />
    <glyph glyph-name="k" unicode="k" horiz-adv-x="503" 
d="M68 672h80v-672h-80v672zM369 492h88l-210 -217l223 -275h-96l-218 267z" />
    <glyph glyph-name="l" unicode="l" horiz-adv-x="263" 
d="M162 70q14 -5 36 -5t58 11v-62q-3 -1 -16 -6t-22 -8q-28 -10 -67 -10t-67.5 31.5t-28.5 83.5v566h80v-537q-1 -54 27 -64z" />
    <glyph glyph-name="m" unicode="m" horiz-adv-x="783" 
d="M425 383q5 -17 5 -56v-327h-81v307q0 44 -10 67q-21 45 -72 51q-6 1 -13 1q-47 0 -112 -37v-389h-82v480h57l16 -36q45 28 80 39q36 10 67 10q45 0 80 -21q24 -13 44 -42q63 42 98 52q38 11 71 11q45 0 80 -21q70 -42 70 -145v-327h-81v307q0 44 -10 67q-21 45 -74 51
q-6 1 -12 1q-50 0 -121 -43z" />
    <glyph glyph-name="n" unicode="n" horiz-adv-x="548" 
d="M383 396q-24 27 -95 27t-146 -35v-388h-82v480h57l16 -36q91 48 183 48q172 0 172 -165v-327h-81v307q0 62 -24 89z" />
    <glyph glyph-name="o" unicode="o" horiz-adv-x="569" 
d="M427 240q0 85 -40.5 135.5t-108.5 50.5t-108.5 -51.5t-40.5 -134.5t40.5 -134t109 -51t108.5 50t40 135zM107.5 56q-61.5 66 -61.5 183.5t62.5 184t171 66.5t169.5 -65.5t61 -183t-62.5 -184.5t-170.5 -67t-169.5 66z" />
    <glyph glyph-name="p" unicode="p" horiz-adv-x="568" 
d="M279 423q-55 0 -109 -30v-318q54 -23 108 -23q74 0 116 51t42 136t-40.5 134.5t-116.5 49.5zM170 11v-272h-83v742h59l15 -33q66 43 136 43t122 -32q102 -65 102 -213q0 -125 -69 -192t-166 -67q-59 0 -116 24z" />
    <glyph glyph-name="q" unicode="q" horiz-adv-x="564" 
d="M400 393q-54 30 -109 30q-76 0 -116.5 -49.5t-40.5 -134.5t42 -136t116 -51q54 0 108 23v318zM400 11q-57 -24 -116 -24q-97 0 -166 67t-69 192q0 148 102 213q52 32 122 32t136 -43l15 33h59v-742h-83v272z" />
    <glyph glyph-name="r" unicode="r" horiz-adv-x="391" 
d="M148 481l16 -40q64 49 134 49q34 0 66 -9v-79h-10q-40 16 -73 16q-57 0 -110 -35v-383h-83v481h60z" />
    <glyph glyph-name="s" unicode="s" horiz-adv-x="497" 
d="M249 58q44 0 75 16.5t31 48t-30 52t-63 30.5l-72 22q-46 18 -57.5 27.5t-19.5 16.5q-23 21 -29 61q-1 9 -1 18q0 30 15 59q19 37 76 60q48 18 105 18q62 0 135 -21v-67q-74 20 -120 20t-69.5 -5t-41 -21t-17.5 -34t7 -27q16 -22 66 -41l43 -16q106 -38 126 -61
q30 -32 33 -78v-9q0 -41 -25 -73q-50 -64 -161 -64t-176 28v73q85 -33 170 -33z" />
    <glyph glyph-name="t" unicode="t" horiz-adv-x="387" 
d="M25 415v68h81v120l81 4v-124h160v-68h-160v-259q-1 -53 17 -75t60 -22t83 11v-61q-55 -18 -106 -18q-73 0 -104 40t-31 119v265h-81z" />
    <glyph glyph-name="u" unicode="u" horiz-adv-x="521" 
d="M165 84q23 -27 79 -27t131 35v388h82v-480h-57l-16 36q-92 -48 -167 -48q-77 0 -117 44t-40 121v327h81v-307q0 -62 24 -89z" />
    <glyph glyph-name="v" unicode="v" horiz-adv-x="492" 
d="M470 484l-180 -484h-88l-180 484h88l133 -379l5 -26l4 26l134 379h84z" />
    <glyph glyph-name="w" unicode="w" horiz-adv-x="817" 
d="M27 482h85l131 -404l129 404h79l124 -404l131 404h85l-176 -482h-81l-126 391l-129 -391h-76z" />
    <glyph glyph-name="x" unicode="x" horiz-adv-x="511" 
d="M392 482h86l-178 -246l168 -236h-93l-129 181l-123 -181h-85l169 237l-175 245h93l136 -191z" />
    <glyph glyph-name="y" unicode="y" horiz-adv-x="507" 
d="M405 482h76l-276 -741h-85l99 240l-197 501h81l151 -409z" />
    <glyph glyph-name="z" unicode="z" horiz-adv-x="526" 
d="M73 482h368v-42l-264 -377h276v-63h-380v42l263 377h-263v63z" />
    <glyph glyph-name="braceleft" unicode="{" horiz-adv-x="389" 
d="M167 492l2 36q13 142 113 192q32 15 66 18l14 -63q-112 -17 -122 -176q-4 -57 -9 -95t-26 -74t-58 -61q78 -51 89 -176q5 -45 5 -61q12 -155 121 -170l-14 -63q-71 6 -121 60q-49 54 -58 144q-1 12 -2.5 34t-5 59t-20.5 68q-33 60 -97 71v67q62 10 96 70q17 32 21 61.5
t6 58.5z" />
    <glyph glyph-name="bar" unicode="|" horiz-adv-x="431" 
d="M256 782v-932v932zM176 782h80v-932h-80v932z" />
    <glyph glyph-name="braceright" unicode="}" horiz-adv-x="389" 
d="M27 -138q109 15 122 170q0 2 3 40t8.5 69.5t25.5 67.5t56 60q-70 46 -85 145q-2 13 -6.5 87.5t-32.5 115.5q-31 49 -91 58l15 63q71 -4 120 -59t58 -151q0 -28 9 -95q5 -33 20 -60q33 -60 97 -71v-67q-63 -10 -96 -69q-18 -32 -21 -63q-1 -8 -4.5 -52.5t-6 -66.5
t-16.5 -59.5t-37 -63.5q-51 -56 -123 -62z" />
    <glyph glyph-name="asciitilde" unicode="~" horiz-adv-x="515" 
d="M383 430l52 -8l-8 -41q-9 -45 -23 -64q-27 -35 -65 -35q-19 0 -40 8q-22 9 -50 33l-17 15l-16 16q-18 16 -35 16h-5q-19 -2 -28 -24q-6 -13 -11 -40l-4 -25l-53 8l8 42q9 45 23 64q28 36 66 36q19 0 40 -9q20 -8 49 -33l17 -16q30 -30 52 -30q10 0 19 6q11 9 15 19t9 37z
" />
    <glyph glyph-name="uni00A0" unicode="&#xa0;" horiz-adv-x="273" 
 />
    <glyph glyph-name="exclamdown" unicode="&#xa1;" horiz-adv-x="317" 
d="M117 421h83v-621h-83v621zM110 645h98v-98h-98v98z" />
    <glyph glyph-name="cent" unicode="&#xa2;" horiz-adv-x="498" 
d="M265 738h59v-132q61 -3 118 -28l-19 -59q-54 19 -99 19h-8q-166 -8 -166 -173q0 -9 1 -19q6 -103 76 -145q46 -26 100 -26q43 0 90 17l20 -55q-52 -21 -113 -26v-143h-59v144q-97 10 -149 82q-43 60 -43 153q0 117 54.5 181t137.5 76v134z" />
    <glyph glyph-name="sterling" unicode="&#xa3;" 
d="M74 66h119v257h-86v66h86v69q0 61 11 97q20 62 80 103q61 41 147 41q52 0 114 -19l-23 -59q-40 11 -81.5 11t-67.5 -10q-43 -17 -67 -47q-28 -40 -30.5 -76.5t-2.5 -53.5v-56h259v-66h-259v-257h288v-66h-487v66z" />
    <glyph glyph-name="currency" unicode="&#xa4;" 
d="M151 589l82 -81q38 23 84 23t85 -23l81 80l61 -61l-81 -80q23 -38 23 -84t-23 -85l80 -81l-61 -61l-80 81q-40 -24 -85.5 -24t-83.5 23l-81 -81l-61 61l81 81q-24 40 -24 84.5t24 85.5l-82 81zM220 361q0 -42 28.5 -70.5t68 -28.5t67.5 26.5t31 67.5v7q-1 37 -27 67
q-30 32 -71 32t-69 -29.5t-28 -71.5z" />
    <glyph glyph-name="yen" unicode="&#xa5;" 
d="M70 694h90l157 -295l162 295h86l-209 -353h138v-61h-141v-97h141v-61h-141v-122h-78v122h-134v61h134v97h-134v61h130z" />
    <glyph glyph-name="brokenbar" unicode="&#xa6;" horiz-adv-x="431" 
d="M176 782h80v-373h-80v373zM176 225h80v-375h-80v375z" />
    <glyph glyph-name="section" unicode="&#xa7;" horiz-adv-x="554" 
d="M229 690q37 10 81 10t57 -2l19 -3q6 0 18 -3l15 -4q4 0 16 -4l15 -5l-22 -64q-58 19 -117.5 19t-93.5 -19t-34 -55q0 -23 23 -42q24 -20 57 -30q77 -24 137 -51q33 -15 54.5 -42.5t21.5 -61.5q0 -59 -41 -102q41 -33 41 -81q0 -76 -65 -122q-55 -38 -153.5 -38t-179.5 32
l23 61q84 -30 148 -30q135 0 135 87q0 40 -57 62q-16 7 -42 14.5t-49 15.5t-40 13.5t-44 21.5q-57 35 -57 94.5t43 99.5q-42 35 -42 84t29 84q34 43 104 61zM207 425q-24 -19 -24 -42.5t10 -36.5q14 -18 70 -41q7 -2 51.5 -17t48.5 -17q21 21 21 52q0 49 -94 76l-42 12
q-18 6 -41 14z" />
    <glyph glyph-name="dieresis" unicode="&#xa8;" horiz-adv-x="585" 
d="M357 693h91v-90h-91v90zM138 693h91v-90h-91v90z" />
    <glyph glyph-name="copyright" unicode="&#xa9;" horiz-adv-x="859" 
d="M446 515h7q42 0 88 -21l-15 -42q-41 15 -76 15q-30 0 -56 -11q-64 -27 -64 -118v-11q4 -76 54 -106q21 -13 57 -17q8 -1 17 -1q29 0 64 12l15 -40q-48 -19 -96 -19q-93 0 -137 60q-31 43 -31 118.5t41.5 127t131.5 53.5zM430 609q-54 0 -106 -21q-108 -43 -154 -148
q-22 -50 -22 -106t22 -108q45 -103 153 -147q53 -21 107 -21t106 20q107 42 153 149q22 50 22 107q-1 56 -23 108q-46 105 -151 146q-53 21 -107 21zM110 464q55 130 188 184q66 26 131 26t130.5 -26t114.5 -73t75.5 -111t26.5 -131.5t-27 -131t-75.5 -110.5t-113.5 -72.5
t-130.5 -25.5t-129.5 25t-113.5 73.5t-76.5 111t-27 130.5t27 131z" />
    <glyph glyph-name="ordfeminine" unicode="&#xaa;" horiz-adv-x="374" 
d="M255 538v9q0 33 -10 44q-21 24 -60.5 24t-81.5 -13l-9 34q48 18 88 18q70 0 97 -27q24 -24 24 -75l-1 -181h-33l-11 26q-32 -35 -74.5 -35t-70.5 23t-28 62q0 66 66 81q35 8 104 10zM147 479q-14 -11 -14 -29.5t16.5 -33.5t47 -15t58.5 40v57h-9q-77 0 -99 -19z" />
    <glyph glyph-name="guillemotleft" unicode="&#xab;" horiz-adv-x="457" 
d="M342 482h91l-134 -178l134 -178h-91l-124 178zM161 482h90l-133 -178l133 -178h-90l-124 178z" />
    <glyph glyph-name="logicalnot" unicode="&#xac;" horiz-adv-x="683" 
d="M61 357h562v-219h-73v147h-489v72z" />
    <glyph glyph-name="uni00AD" unicode="&#xad;" horiz-adv-x="524" 
d="M107 355h310v-67h-310v67z" />
    <glyph glyph-name="registered" unicode="&#xae;" horiz-adv-x="601" 
d="M309 481l-43 -1h-12v-101h-46v264l109 2h5q55 0 74 -41q9 -17 9 -37q0 -15 -5 -31q-11 -38 -48 -49l55 -108h-49zM120 689q76 73 180 73q50 0 98 -19q99 -40 140 -137q20 -49 20 -97q0 -47 -20 -95q-40 -97 -140 -138q-49 -20 -97.5 -20t-96 19.5t-84.5 55t-56.5 83
t-19.5 95.5t20 96.5t56 83.5zM443 651q-60 57 -142.5 57t-142.5 -58t-60 -141t59.5 -140.5t143 -57.5t143 57.5t59.5 140.5q0 41 -17 79t-43 63zM254 518h16q41 0 60 2q20 4 28 26q4 10 4 18q0 10 -6 17q-15 22 -41 24h-61v-87z" />
    <glyph glyph-name="macron" unicode="&#xaf;" horiz-adv-x="683" 
d="M139 801h405v-73h-405v73z" />
    <glyph glyph-name="degree" unicode="&#xb0;" horiz-adv-x="287" 
d="M188 557q18 19 18 45t-18 46t-44.5 20t-44.5 -19t-18 -46.5t17.5 -46t44.5 -18.5t45 19zM219 525q-32 -32 -75.5 -32t-75 31.5t-31.5 78t31.5 78t75 31.5t75.5 -32t32 -77.5t-32 -77.5z" />
    <glyph glyph-name="plusminus" unicode="&#xb1;" horiz-adv-x="683" 
d="M306 694h71v-201h199v-67h-199v-201h-71v201h-199v67h199v201zM107 140h469v-67h-469v67z" />
    <glyph glyph-name="uni00B2" unicode="&#xb2;" horiz-adv-x="390" 
d="M63 713q62 31 115 31t88 -27t35 -69t-32 -75q-9 -10 -33 -32l-35 -33q-41 -37 -61 -87h167v-51h-236l1 32q21 68 64 115q30 33 68 67t39 56q0 22 -20 38q-19 15 -49 15t-92 -24z" />
    <glyph glyph-name="uni00B3" unicode="&#xb3;" horiz-adv-x="390" 
d="M255 717q32 -27 32 -71t-41 -70q56 -24 56 -82t-40 -94q-40 -34 -101 -34h-1q-42 0 -99 22l16 47q59 -16 89 -16t55 18t25 43q0 24 -22 44t-77 20h-12v50q75 2 92 35q4 7 4 21t-16 27t-48 13t-80 -22l-19 46q60 29 108 29t79 -26z" />
    <glyph glyph-name="acute" unicode="&#xb4;" horiz-adv-x="547" 
d="M380 774l34 -60l-250 -144l-30 53z" />
    <glyph glyph-name="uni00B5" unicode="&#xb5;" horiz-adv-x="579" 
d="M93 482h80v-261q0 -157 110 -166h7q46 0 122 37v390h80v-482h-56l-15 33q-71 -46 -138 -46t-110 39v-226h-80v682z" />
    <glyph glyph-name="paragraph" unicode="&#xb6;" horiz-adv-x="653" 
d="M113 687q32 30 74.5 40.5t110.5 10.5h263v-738h-83v665h-118v-665h-83l-1 335q-49 4 -78 13q-28 9 -54 28q-44 33 -62.5 82t-18.5 95q0 84 50 134z" />
    <glyph glyph-name="periodcentered" unicode="&#xb7;" horiz-adv-x="288" 
d="M93 409h102v-102h-102v102z" />
    <glyph glyph-name="cedilla" unicode="&#xb8;" horiz-adv-x="537" 
d="M267 11h62l-19 -77l12 -4q28 -9 40 -16q34 -19 38 -63v-8q0 -39 -34 -65q-26 -20 -65 -21q-18 0 -40 5q-16 4 -56 15l-17 5l13 45l15 -5q60 -18 84 -18q40 2 49 26q3 7 3 13q0 9 -7 17q-12 13 -22 17.5t-23 8.5l-61 19z" />
    <glyph glyph-name="uni00B9" unicode="&#xb9;" horiz-adv-x="265" 
d="M123 738h44v-367h-55v314l-70 -20l-13 47z" />
    <glyph glyph-name="ordmasculine" unicode="&#xba;" horiz-adv-x="372" 
d="M181 416q103 0 103 142q0 89 -47 119q-21 14 -46 14q-44 0 -73.5 -28t-29.5 -102q0 -97 47 -129q24 -16 46 -16zM259 725q30 -17 43 -34q37 -44 37 -133t-43.5 -140t-109 -51t-106.5 40q-47 44 -47 143t46.5 145.5t98 46.5t81.5 -17z" />
    <glyph glyph-name="guillemotright" unicode="&#xbb;" horiz-adv-x="457" 
d="M115 482l124 -178l-124 -178h-91l134 178l-134 178h91zM296 482l124 -178l-124 -178h-90l133 178l-133 178h90z" />
    <glyph glyph-name="onequarter" unicode="&#xbc;" horiz-adv-x="864" 
d="M576 694h86l-401 -694h-86zM167 694h54v-392h-65v328l-68 -19l-15 57zM679 408h77v-259h52v-54h-52v-95h-65v95h-191v44zM691 336l-118 -187h118v187z" />
    <glyph glyph-name="onehalf" unicode="&#xbd;" horiz-adv-x="877" 
d="M576 694h86l-401 -694h-86zM556 377q71 34 128 34t95 -30t38 -73t-27 -76q-10 -13 -28 -29l-33 -31q-46 -42 -63 -67t-27 -48h185v-57h-260v35q30 97 131 186q39 33 49 49t9 27q1 23 -21 41t-56 17q-34 0 -100 -26zM167 694h54v-392h-65v328l-68 -19l-15 57z" />
    <glyph glyph-name="threequarters" unicode="&#xbe;" horiz-adv-x="903" 
d="M621 694h85l-400 -694h-86zM719 408h76v-259h53v-54h-53v-95h-65v95h-190v44zM730 336l-117 -187h117v187zM68 676q64 32 118.5 32t89 -28.5t34.5 -77t-46 -78.5q63 -26 63 -89.5t-45 -102.5t-111 -39h-2q-48 0 -108 24l18 52q66 -17 99 -17t59.5 19.5t26.5 46.5t-16 42
q-31 29 -92 29h-13v55h8q53 2 75 19.5t22 37.5t-17.5 34.5t-53.5 14.5t-87 -25z" />
    <glyph glyph-name="questiondown" unicode="&#xbf;" horiz-adv-x="511" 
d="M174 -45q-46 24 -79 67.5t-33 103t38 99.5q16 18 51.5 46.5t59.5 63.5q37 52 37 147h83q0 -94 -23 -147q-10 -24 -27.5 -49.5t-58.5 -59.5l-30 -24q-49 -38 -49 -94q0 -43 36 -75q37 -32 97 -32t140 33l25 -60q-90 -43 -173 -43q-48 0 -94 24zM338 596h-97v97h97v-97z
" />
    <glyph glyph-name="Agrave" unicode="&#xc0;" horiz-adv-x="648" 
d="M224 942l247 -151l-31 -53l-250 144zM277 694h94l247 -694h-84l-70 202h-287l-70 -202h-77zM321 613l-119 -339h236z" />
    <glyph glyph-name="Aacute" unicode="&#xc1;" horiz-adv-x="648" 
d="M423 942l34 -60l-250 -144l-30 53zM277 694h94l247 -694h-84l-70 202h-287l-70 -202h-77zM321 613l-119 -339h236z" />
    <glyph glyph-name="Acircumflex" unicode="&#xc2;" horiz-adv-x="648" 
d="M334 939l158 -172l-45 -43l-119 129l-119 -126l-43 38zM277 694h94l247 -694h-84l-70 202h-287l-70 -202h-77zM321 613l-119 -339h236z" />
    <glyph glyph-name="Atilde" unicode="&#xc3;" horiz-adv-x="648" 
d="M492 916l52 -8l-8 -41q-9 -45 -23 -64q-27 -35 -65 -35q-19 0 -40 8q-22 9 -50 33l-17 15l-16 16q-18 16 -35 16h-5q-19 -2 -28 -24q-6 -13 -11 -40l-4 -25l-53 8l8 42q9 45 23 64q28 36 66 36q19 0 40 -9q20 -8 49 -33l17 -16q30 -30 52 -30q10 0 19 6q11 9 15 19t9 37z
M277 694h94l247 -694h-84l-70 202h-287l-70 -202h-77zM321 613l-119 -339h236z" />
    <glyph glyph-name="Adieresis" unicode="&#xc4;" horiz-adv-x="648" 
d="M388 926h91v-90h-91v90zM169 926h91v-90h-91v90zM277 694h94l247 -694h-84l-70 202h-287l-70 -202h-77zM321 613l-119 -339h236z" />
    <glyph glyph-name="Aring" unicode="&#xc5;" horiz-adv-x="648" 
d="M379.107 737.124q21.6484 21.665 21.6484 51.3115t-21.6484 52.4521t-53.5205 22.8057q-31.8711 0 -53.5195 -21.665t-21.6484 -53.0225t21.0469 -52.4521t53.5195 -21.0947q32.4736 0 54.1221 21.665zM416.391 700.636q-38.4863 -36.4883 -90.8037 -36.4883
t-90.2021 35.918q-37.8848 35.9189 -37.8848 88.9404q0 53.0225 37.8848 88.9404t90.2021 35.918t90.8037 -36.4883t38.4863 -88.3701t-38.4863 -88.3701zM277 694h94l247 -694h-84l-70 202h-287l-70 -202h-77zM321 613l-119 -339h236z" />
    <glyph glyph-name="AE" unicode="&#xc6;" horiz-adv-x="935" 
d="M334 694h523v-73h-302v-227h275v-73h-275v-248h302v-73h-385v202h-251l-78 -202h-80zM249 274h223v347h-89z" />
    <glyph glyph-name="Ccedilla" unicode="&#xc7;" horiz-adv-x="692" 
d="M365 12l70 -3l-18 -75q35 -11 48 -19q35 -21 39 -65v-8q0 -38 -35 -67q-28 -22 -69 -22q-18 0 -38 4q-10 2 -61 17l-16 5l15 51l14 -5q65 -19 94 -19h2q29 1 37 22q7 16 -2 28q-9 13 -18 17q-8 4 -25 9l-67 20zM203 346q0 -166 132 -246q61 -35 143 -35t163 33l21 -66
q-92 -42 -207 -42t-202 58q-28 18 -50 41q-94 100 -94 256q0 75 26 142q52 131 180 184q62 26 129.5 26t113.5 -9t95 -27l-23 -68q-51 18 -86.5 24t-84.5 6t-99.5 -21.5t-84.5 -58.5q-72 -79 -72 -197z" />
    <glyph glyph-name="Egrave" unicode="&#xc8;" horiz-adv-x="556" 
d="M181 941l247 -151l-31 -53l-250 144zM90 0v694h406v-73h-323v-227h296v-73h-296v-248h323v-73h-406z" />
    <glyph glyph-name="Eacute" unicode="&#xc9;" horiz-adv-x="556" 
d="M413 941l34 -60l-250 -144l-30 53zM90 0v694h406v-73h-323v-227h296v-73h-296v-248h323v-73h-406z" />
    <glyph glyph-name="Ecircumflex" unicode="&#xca;" horiz-adv-x="556" 
d="M299 943l158 -172l-45 -43l-119 129l-119 -126l-43 38zM90 0v694h406v-73h-323v-227h296v-73h-296v-248h323v-73h-406z" />
    <glyph glyph-name="Edieresis" unicode="&#xcb;" horiz-adv-x="556" 
d="M357 926h91v-90h-91v90zM138 926h91v-90h-91v90zM90 0v694h406v-73h-323v-227h296v-73h-296v-248h323v-73h-406z" />
    <glyph glyph-name="Igrave" unicode="&#xcc;" horiz-adv-x="328" 
d="M85 941l247 -151l-31 -53l-250 144zM140 694h83v-694h-83v694z" />
    <glyph glyph-name="Iacute" unicode="&#xcd;" horiz-adv-x="328" 
d="M255 942l34 -60l-250 -144l-30 53zM140 694h83v-694h-83v694z" />
    <glyph glyph-name="Icircumflex" unicode="&#xce;" horiz-adv-x="328" 
d="M175 939l158 -172l-45 -43l-119 129l-119 -126l-43 38zM140 694h83v-694h-83v694z" />
    <glyph glyph-name="Idieresis" unicode="&#xcf;" horiz-adv-x="327" 
d="M233 891h90v-91h-90v91zM43 891h90v-91h-90v91zM142 694h83v-694h-83v694z" />
    <glyph glyph-name="Eth" unicode="&#xd0;" horiz-adv-x="783" 
d="M164 694h193q120 0 198 -32q79 -32 129 -110q45 -69 45 -180q0 -13 -1 -27q-8 -161 -93 -251t-259 -94h-212v321h-107v74h107v299zM247 321v-248h101q53 0 97.5 6.5t80.5 28.5q113 65 119 241v12q0 80 -37 141q-59 97 -162 115q-21 4 -65 4h-134v-226h125v-74h-125z" />
    <glyph glyph-name="Ntilde" unicode="&#xd1;" horiz-adv-x="746" 
d="M561 916l52 -8l-8 -41q-9 -45 -23 -64q-27 -35 -65 -35q-19 0 -40 8q-22 9 -50 33l-17 15l-16 16q-18 16 -35 16h-5q-19 -2 -28 -24q-6 -13 -11 -40l-4 -25l-53 8l8 42q9 45 23 64q28 36 66 36q19 0 40 -9q20 -8 49 -33l17 -16q30 -30 52 -30q10 0 19 6q11 9 15 19t9 37z
M90 694h105l378 -581v581h83v-694h-105l-378 582v-582h-83v694z" />
    <glyph glyph-name="Ograve" unicode="&#xd2;" horiz-adv-x="811" 
d="M349 943l247 -151l-31 -53l-250 144zM419 626q-68 0 -121 -35.5t-83.5 -99.5t-30.5 -145t30.5 -145t83.5 -99.5t121 -35.5t121 35.5t83.5 99.5t30.5 144.5t-30 145t-83.5 100t-121.5 35.5zM90 345.5q0 106.5 40 187t115.5 124t173 43.5t173 -43.5t116 -125t40.5 -186.5
t-41 -185.5t-116 -124t-172.5 -43.5t-172.5 43.5t-115.5 123.5t-40.5 186.5z" />
    <glyph glyph-name="Oacute" unicode="&#xd3;" horiz-adv-x="811" 
d="M531 942l34 -60l-250 -144l-30 53zM419 626q-68 0 -121 -35.5t-83.5 -99.5t-30.5 -145t30.5 -145t83.5 -99.5t121 -35.5t121 35.5t83.5 99.5t30.5 144.5t-30 145t-83.5 100t-121.5 35.5zM90 345.5q0 106.5 40 187t115.5 124t173 43.5t173 -43.5t116 -125t40.5 -186.5
t-41 -185.5t-116 -124t-172.5 -43.5t-172.5 43.5t-115.5 123.5t-40.5 186.5z" />
    <glyph glyph-name="Ocircumflex" unicode="&#xd4;" horiz-adv-x="811" 
d="M435 939l158 -172l-45 -43l-119 129l-119 -126l-43 38zM419 626q-68 0 -121 -35.5t-83.5 -99.5t-30.5 -145t30.5 -145t83.5 -99.5t121 -35.5t121 35.5t83.5 99.5t30.5 144.5t-30 145t-83.5 100t-121.5 35.5zM90 345.5q0 106.5 40 187t115.5 124t173 43.5t173 -43.5
t116 -125t40.5 -186.5t-41 -185.5t-116 -124t-172.5 -43.5t-172.5 43.5t-115.5 123.5t-40.5 186.5z" />
    <glyph glyph-name="Otilde" unicode="&#xd5;" horiz-adv-x="811" 
d="M571 916l52 -8l-8 -41q-9 -45 -23 -64q-27 -35 -65 -35q-19 0 -40 8q-22 9 -50 33l-17 15l-16 16q-18 16 -35 16h-5q-19 -2 -28 -24q-6 -13 -11 -40l-4 -25l-53 8l8 42q9 45 23 64q28 36 66 36q19 0 40 -9q20 -8 49 -33l17 -16q30 -30 52 -30q10 0 19 6q11 9 15 19t9 37z
M419 626q-68 0 -121 -35.5t-83.5 -99.5t-30.5 -145t30.5 -145t83.5 -99.5t121 -35.5t121 35.5t83.5 99.5t30.5 144.5t-30 145t-83.5 100t-121.5 35.5zM90 345.5q0 106.5 40 187t115.5 124t173 43.5t173 -43.5t116 -125t40.5 -186.5t-41 -185.5t-116 -124t-172.5 -43.5
t-172.5 43.5t-115.5 123.5t-40.5 186.5z" />
    <glyph glyph-name="Odieresis" unicode="&#xd6;" horiz-adv-x="811" 
d="M490 926h91v-90h-91v90zM271 926h91v-90h-91v90zM419 626q-68 0 -121 -35.5t-83.5 -99.5t-30.5 -145t30.5 -145t83.5 -99.5t121 -35.5t121 35.5t83.5 99.5t30.5 144.5t-30 145t-83.5 100t-121.5 35.5zM90 345.5q0 106.5 40 187t115.5 124t173 43.5t173 -43.5t116 -125
t40.5 -186.5t-41 -185.5t-116 -124t-172.5 -43.5t-172.5 43.5t-115.5 123.5t-40.5 186.5z" />
    <glyph glyph-name="multiply" unicode="&#xd7;" 
d="M141 95l-52 51l173 173l-169 169l51 52l176 -177l173 174l51 -52l-172 -173l169 -169l-51 -52l-177 177z" />
    <glyph glyph-name="Oslash" unicode="&#xd8;" horiz-adv-x="857" 
d="M196 89l-90 -87l-31 32l93 89q-63 91 -63 223q0 83 26.5 154t75.5 115q94 86 225 86h3q67 0 129.5 -26t105.5 -73l90 86l31 -32l-93 -89q59 -86 59 -209v-12q-2 -81 -29 -151.5t-75 -114.5q-95 -87 -229.5 -87t-227.5 96zM609 544q-27 33 -73.5 58.5t-102.5 25.5
q-111 -2 -179 -78q-65 -73 -64 -193v-11q1 -92 42 -162zM634 507l-376 -360q69 -82 179 -82q53 0 101 25t78 66q56 76 56 179.5t-38 171.5z" />
    <glyph glyph-name="Ugrave" unicode="&#xd9;" horiz-adv-x="709" 
d="M253 941l247 -151l-31 -53l-250 144zM90 265l1 38v391h83v-450q0 -45 8 -74q6 -30 30 -56q47 -52 142 -52t144 55q22 25 29.5 53.5t7.5 73.5v450h83v-429l1 -42q-2 -97 -44 -150q-65 -83 -221 -83t-221 83q-43 52 -43 150v42z" />
    <glyph glyph-name="Uacute" unicode="&#xda;" horiz-adv-x="709" 
d="M469 942l34 -60l-250 -144l-30 53zM90 265l1 38v391h83v-450q0 -45 8 -74q6 -30 30 -56q47 -52 142 -52t144 55q22 25 29.5 53.5t7.5 73.5v450h83v-429l1 -42q-2 -97 -44 -150q-65 -83 -221 -83t-221 83q-43 52 -43 150v42z" />
    <glyph glyph-name="Ucircumflex" unicode="&#xdb;" horiz-adv-x="709" 
d="M361 939l158 -172l-45 -43l-119 129l-119 -126l-43 38zM90 265l1 38v391h83v-450q0 -45 8 -74q6 -30 30 -56q47 -52 142 -52t144 55q22 25 29.5 53.5t7.5 73.5v450h83v-429l1 -42q-2 -97 -44 -150q-65 -83 -221 -83t-221 83q-43 52 -43 150v42z" />
    <glyph glyph-name="Udieresis" unicode="&#xdc;" horiz-adv-x="709" 
d="M418 926h91v-90h-91v90zM199 926h91v-90h-91v90zM90 265l1 38v391h83v-450q0 -45 8 -74q6 -30 30 -56q47 -52 142 -52t144 55q22 25 29.5 53.5t7.5 73.5v450h83v-429l1 -42q-2 -97 -44 -150q-65 -83 -221 -83t-221 83q-43 52 -43 150v42z" />
    <glyph glyph-name="Yacute" unicode="&#xdd;" horiz-adv-x="609" 
d="M420 942l34 -60l-250 -144l-30 53zM44 694h98l177 -287l180 287h93l-236 -365v-329h-83v329z" />
    <glyph glyph-name="Thorn" unicode="&#xde;" horiz-adv-x="647" 
d="M142 694h83v-134q72 7 128 7q79 0 126 -14q102 -30 120 -123q5 -22 5 -46q0 -15 -2 -31q-17 -143 -137 -178q-33 -11 -97 -15q-28 -2 -57 -1q-40 0 -86 3v-162h-83v694zM225 487v-251q57 -4 101 -4q73 0 111 12q76 26 82 116v11q0 80 -80 108q-40 13 -112 13
q-45 0 -102 -5z" />
    <glyph glyph-name="germandbls" unicode="&#xdf;" horiz-adv-x="615" 
d="M294 698q31 0 60 -10q50 -18 79 -64q27 -40 27 -86.5t-23 -74.5t-50.5 -48.5t-28.5 -21.5q-25 -21 -25 -40.5t10 -34t48 -29.5l35 -13q48 -16 68 -30q62 -41 63 -119q0 -63 -47 -105q-41 -35 -112.5 -35t-151.5 23l15 57q77 -15 119.5 -15t67 17t24.5 55.5t-28 59.5
q-20 16 -63 31l-36 13q-92 36 -92 115q0 45 26 73q14 16 44.5 39.5t32.5 25.5q26 23 26 57t-31 61q-32 27 -72 27t-70 -31t-30 -96l1 -499h-81l-1 500q0 118 87 170q47 28 109 28z" />
    <glyph glyph-name="agrave" unicode="&#xe0;" horiz-adv-x="491" 
d="M217 756l178 -158l-39 -49l-184 154zM73 459q78 30 162.5 30t125 -27t53.5 -60.5t13 -88.5v-313h-61l-18 45q-67 -57 -148 -57q-8 0 -16 1q-52 3 -95.5 38t-43.5 92.5t34 94.5q34 35 84 49q72 18 182 21v4q0 51 -9 75q-21 57 -110 57q-44 0 -106 -14q-44 -11 -47 -12v65z
M345 109v115q-98 -3 -128 -9q-57 -13 -81 -51q-11 -18 -10 -35q0 -21 15 -41q11 -16 36 -28q14 -7 37 -7q18 0 38 4q50 9 93 52z" />
    <glyph glyph-name="aacute" unicode="&#xe1;" horiz-adv-x="491" 
d="M330 756l45 -53l-184 -154l-39 49zM73 459q78 30 162.5 30t125 -27t53.5 -60.5t13 -88.5v-313h-61l-18 45q-67 -57 -148 -57q-8 0 -16 1q-52 3 -95.5 38t-43.5 92.5t34 94.5q34 35 84 49q72 18 182 21v4q0 51 -9 75q-21 57 -110 57q-44 0 -106 -14q-44 -11 -47 -12v65z
M345 109v115q-98 -3 -128 -9q-57 -13 -81 -51q-11 -18 -10 -35q0 -21 15 -41q11 -16 36 -28q14 -7 37 -7q18 0 38 4q50 9 93 52z" />
    <glyph glyph-name="acircumflex" unicode="&#xe2;" horiz-adv-x="491" 
d="M266 727l158 -172l-45 -43l-119 129l-119 -126l-43 38zM73 459q78 30 162.5 30t125 -27t53.5 -60.5t13 -88.5v-313h-61l-18 45q-67 -57 -148 -57q-8 0 -16 1q-52 3 -95.5 38t-43.5 92.5t34 94.5q34 35 84 49q72 18 182 21v4q0 51 -9 75q-21 57 -110 57q-44 0 -106 -14
q-44 -11 -47 -12v65zM345 109v115q-98 -3 -128 -9q-57 -13 -81 -51q-11 -18 -10 -35q0 -21 15 -41q11 -16 36 -28q14 -7 37 -7q18 0 38 4q50 9 93 52z" />
    <glyph glyph-name="atilde" unicode="&#xe3;" horiz-adv-x="491" 
d="M394 703l52 -8l-8 -41q-9 -45 -23 -64q-27 -35 -65 -35q-19 0 -40 8q-22 9 -50 33l-17 15l-16 16q-18 16 -35 16h-5q-19 -2 -28 -24q-6 -13 -11 -40l-4 -25l-53 8l8 42q9 45 23 64q28 36 66 36q19 0 40 -9q20 -8 49 -33l17 -16q30 -30 52 -30q10 0 19 6q11 9 15 19t9 37z
M73 459q78 30 162.5 30t125 -27t53.5 -60.5t13 -88.5v-313h-61l-18 45q-67 -57 -148 -57q-8 0 -16 1q-52 3 -95.5 38t-43.5 92.5t34 94.5q34 35 84 49q72 18 182 21v4q0 51 -9 75q-21 57 -110 57q-44 0 -106 -14q-44 -11 -47 -12v65zM345 109v115q-98 -3 -128 -9
q-57 -13 -81 -51q-11 -18 -10 -35q0 -21 15 -41q11 -16 36 -28q14 -7 37 -7q18 0 38 4q50 9 93 52z" />
    <glyph glyph-name="adieresis" unicode="&#xe4;" horiz-adv-x="491" 
d="M345 693h91v-90h-91v90zM126 693h91v-90h-91v90zM73 459q78 30 162.5 30t125 -27t53.5 -60.5t13 -88.5v-313h-61l-18 45q-67 -57 -148 -57q-8 0 -16 1q-52 3 -95.5 38t-43.5 92.5t34 94.5q34 35 84 49q72 18 182 21v4q0 51 -9 75q-21 57 -110 57q-44 0 -106 -14
q-44 -11 -47 -12v65zM345 109v115q-98 -3 -128 -9q-57 -13 -81 -51q-11 -18 -10 -35q0 -21 15 -41q11 -16 36 -28q14 -7 37 -7q18 0 38 4q50 9 93 52z" />
    <glyph glyph-name="aring" unicode="&#xe5;" horiz-adv-x="491" 
d="M313 613q18 19 18 45t-18 46t-44.5 20t-44.5 -19t-18 -46.5t17.5 -46t44.5 -18.5t45 19zM344 581q-32 -32 -75.5 -32t-75 31.5t-31.5 78t31.5 78t75 31.5t75.5 -32t32 -77.5t-32 -77.5zM73 459q78 30 162.5 30t125 -27t53.5 -60.5t13 -88.5v-313h-61l-18 45
q-67 -57 -148 -57q-8 0 -16 1q-52 3 -95.5 38t-43.5 92.5t34 94.5q34 35 84 49q72 18 182 21v4q0 51 -9 75q-21 57 -110 57q-44 0 -106 -14q-44 -11 -47 -12v65zM345 109v115q-98 -3 -128 -9q-57 -13 -81 -51q-11 -18 -10 -35q0 -21 15 -41q11 -16 36 -28q14 -7 37 -7
q18 0 38 4q50 9 93 52z" />
    <glyph glyph-name="ae" unicode="&#xe6;" horiz-adv-x="817" 
d="M354 213l-37 1q-88 0 -132.5 -18t-44.5 -62q0 -33 32.5 -56.5t74.5 -23.5q62 0 107 47v112zM677 273v17q0 33 -10 59t-23 40q-27 33 -70.5 33t-73.5 -21q-57 -41 -62 -128h239zM754 245l-1 -32h-319v-6q0 -62 50.5 -107t127.5 -45q43 0 100 17l14 -54q-74 -27 -145 -27
q-119 0 -180 73q-56 -74 -170 -74q-45 0 -84.5 18.5t-63 50.5t-23.5 71q0 54 44 92q60 52 204 52h46v25q0 126 -129 126q-32 0 -114 -22l-20 58q81 30 162 30q115 0 155 -85q31 39 77.5 62t96.5 23q172 0 172 -246z" />
    <glyph glyph-name="ccedilla" unicode="&#xe7;" horiz-adv-x="467" 
d="M246 6h62l-19 -77l12 -4q28 -9 40 -16q34 -19 38 -63v-8q0 -39 -34 -65q-26 -20 -65 -21q-18 0 -40 5q-16 4 -56 15l-17 5l13 45l15 -5q60 -18 84 -18q40 2 49 26q3 7 3 13q0 9 -7 17q-12 13 -22 17.5t-23 8.5l-61 19zM297 491h5q58 0 125 -29l-20 -58q-55 19 -101 19h-6
q-165 -7 -165 -176q0 -10 1 -21q6 -105 75 -145q32 -18 81 -24q11 -1 22 -1q40 0 88 16l19 -55q-69 -27 -131 -27h-5q-126 0 -185 83q-41 58 -43 165v5q0 104 58 174q61 73 182 74z" />
    <glyph glyph-name="egrave" unicode="&#xe8;" horiz-adv-x="523" 
d="M230 756l177 -158l-39 -49l-183 154zM471 218h-328q4 -68 46 -113t135 -45q64 0 133 22v-65q-75 -26 -155 -26q-179 0 -227 139q-16 45 -16 103q0 106 56 182q58 75 163 75q147 0 186 -132q12 -39 12 -88v-44zM145 281h249q0 65 -28.5 104.5t-80.5 39.5q-51 0 -81 -25
q-50 -40 -59 -119z" />
    <glyph glyph-name="eacute" unicode="&#xe9;" horiz-adv-x="523" 
d="M384 756l45 -53l-184 -154l-39 49zM471 218h-328q4 -68 46 -113t135 -45q64 0 133 22v-65q-75 -26 -155 -26q-179 0 -227 139q-16 45 -16 103q0 106 56 182q58 75 163 75q147 0 186 -132q12 -39 12 -88v-44zM145 281h249q0 65 -28.5 104.5t-80.5 39.5q-51 0 -81 -25
q-50 -40 -59 -119z" />
    <glyph glyph-name="ecircumflex" unicode="&#xea;" horiz-adv-x="523" 
d="M297 731l158 -172l-45 -43l-119 129l-119 -126l-43 38zM471 218h-328q4 -68 46 -113t135 -45q64 0 133 22v-65q-75 -26 -155 -26q-179 0 -227 139q-16 45 -16 103q0 106 56 182q58 75 163 75q147 0 186 -132q12 -39 12 -88v-44zM145 281h249q0 65 -28.5 104.5t-80.5 39.5
q-51 0 -81 -25q-50 -40 -59 -119z" />
    <glyph glyph-name="edieresis" unicode="&#xeb;" horiz-adv-x="523" 
d="M368 693h91v-90h-91v90zM149 693h91v-90h-91v90zM471 218h-328q4 -68 46 -113t135 -45q64 0 133 22v-65q-75 -26 -155 -26q-179 0 -227 139q-16 45 -16 103q0 106 56 182q58 75 163 75q147 0 186 -132q12 -39 12 -88v-44zM145 281h249q0 65 -28.5 104.5t-80.5 39.5
q-51 0 -81 -25q-50 -40 -59 -119z" />
    <glyph glyph-name="igrave" unicode="&#xec;" horiz-adv-x="255" 
d="M40 756l178 -158l-39 -49l-184 154zM88 482h80v-482h-80v482z" />
    <glyph glyph-name="iacute" unicode="&#xed;" horiz-adv-x="255" 
d="M232 756l45 -53l-183 -154l-39 49zM88 482h80v-482h-80v482z" />
    <glyph glyph-name="icircumflex" unicode="&#xee;" horiz-adv-x="255" 
d="M137 727l158 -172l-45 -43l-119 129l-119 -126l-43 38zM88 482h80v-482h-80v482z" />
    <glyph glyph-name="idieresis" unicode="&#xef;" horiz-adv-x="255" 
d="M173 694h90v-90h-90v90zM-7 694h90v-90h-90v90zM88 482h80v-482h-80v482z" />
    <glyph glyph-name="eth" unicode="&#xf0;" horiz-adv-x="611" 
d="M446 337q-91 57 -155 57h-3q-65 -1 -106 -45q-41 -45 -41 -112q0 -10 1 -20q5 -51 28 -88q22 -35 58 -55q31 -18 64 -18h10q77 5 115 74q29 52 29 182v25zM436 604q87 -96 87 -254q0 -117 -13 -172t-35 -91.5t-63 -64.5t-104 -31h-19q-111 0 -172 67q-54 60 -54 155v11
q3 102 67 172q60 65 147 64h12q68 -5 152 -53q-6 47 -22.5 83.5t-53.5 72.5l-87 -50l-27 46l70 40q-46 32 -101 50l30 63q82 -23 145 -71l88 51l27 -46z" />
    <glyph glyph-name="ntilde" unicode="&#xf1;" horiz-adv-x="548" 
d="M435 708l52 -8l-8 -41q-9 -45 -23 -64q-27 -35 -65 -35q-19 0 -40 8q-22 9 -50 33l-17 15l-16 16q-18 16 -35 16h-5q-19 -2 -28 -24q-6 -13 -11 -40l-4 -25l-53 8l8 42q9 45 23 64q28 36 66 36q19 0 40 -9q20 -8 49 -33l17 -16q30 -30 52 -30q10 0 19 6q11 9 15 19t9 37z
M383 396q-24 27 -95 27t-146 -35v-388h-82v480h57l16 -36q91 48 183 48q172 0 172 -165v-327h-81v307q0 62 -24 89z" />
    <glyph glyph-name="ograve" unicode="&#xf2;" horiz-adv-x="569" 
d="M242 756l178 -158l-39 -49l-184 154zM427 240q0 85 -40.5 135.5t-108.5 50.5t-108.5 -51.5t-40.5 -134.5t40.5 -134t109 -51t108.5 50t40 135zM107.5 56q-61.5 66 -61.5 183.5t62.5 184t171 66.5t169.5 -65.5t61 -183t-62.5 -184.5t-170.5 -67t-169.5 66z" />
    <glyph glyph-name="oacute" unicode="&#xf3;" horiz-adv-x="569" 
d="M329 756l45 -53l-184 -154l-39 49zM427 240q0 85 -40.5 135.5t-108.5 50.5t-108.5 -51.5t-40.5 -134.5t40.5 -134t109 -51t108.5 50t40 135zM107.5 56q-61.5 66 -61.5 183.5t62.5 184t171 66.5t169.5 -65.5t61 -183t-62.5 -184.5t-170.5 -67t-169.5 66z" />
    <glyph glyph-name="ocircumflex" unicode="&#xf4;" horiz-adv-x="569" 
d="M289 727l158 -172l-45 -43l-119 129l-119 -126l-43 38zM427 240q0 85 -40.5 135.5t-108.5 50.5t-108.5 -51.5t-40.5 -134.5t40.5 -134t109 -51t108.5 50t40 135zM107.5 56q-61.5 66 -61.5 183.5t62.5 184t171 66.5t169.5 -65.5t61 -183t-62.5 -184.5t-170.5 -67
t-169.5 66z" />
    <glyph glyph-name="otilde" unicode="&#xf5;" horiz-adv-x="569" 
d="M412 708l52 -8l-8 -41q-9 -45 -23 -64q-27 -35 -65 -35q-19 0 -40 8q-22 9 -50 33l-17 15l-16 16q-18 16 -35 16h-5q-19 -2 -28 -24q-6 -13 -11 -40l-4 -25l-53 8l8 42q9 45 23 64q28 36 66 36q19 0 40 -9q20 -8 49 -33l17 -16q30 -30 52 -30q10 0 19 6q11 9 15 19t9 37z
M427 240q0 85 -40.5 135.5t-108.5 50.5t-108.5 -51.5t-40.5 -134.5t40.5 -134t109 -51t108.5 50t40 135zM107.5 56q-61.5 66 -61.5 183.5t62.5 184t171 66.5t169.5 -65.5t61 -183t-62.5 -184.5t-170.5 -67t-169.5 66z" />
    <glyph glyph-name="odieresis" unicode="&#xf6;" horiz-adv-x="569" 
d="M359 693h91v-90h-91v90zM140 693h91v-90h-91v90zM427 240q0 85 -40.5 135.5t-108.5 50.5t-108.5 -51.5t-40.5 -134.5t40.5 -134t109 -51t108.5 50t40 135zM107.5 56q-61.5 66 -61.5 183.5t62.5 184t171 66.5t169.5 -65.5t61 -183t-62.5 -184.5t-170.5 -67t-169.5 66z" />
    <glyph glyph-name="divide" unicode="&#xf7;" horiz-adv-x="683" 
d="M61 355h562v-68h-562v68zM294 136h95v-95h-95v95zM294 602h95v-95h-95v95z" />
    <glyph glyph-name="oslash" unicode="&#xf8;" horiz-adv-x="569" 
d="M492 486l29 -28l-455 -465l-28 27zM427 240q0 85 -40.5 135.5t-108.5 50.5t-108.5 -51.5t-40.5 -134.5t40.5 -134t109 -51t108.5 50t40 135zM107.5 56q-61.5 66 -61.5 183.5t62.5 184t171 66.5t169.5 -65.5t61 -183t-62.5 -184.5t-170.5 -67t-169.5 66z" />
    <glyph glyph-name="ugrave" unicode="&#xf9;" horiz-adv-x="521" 
d="M116 756l178 -158l-39 -49l-184 154zM165 84q23 -27 79 -27t131 35v388h82v-480h-57l-16 36q-92 -48 -167 -48q-77 0 -117 44t-40 121v327h81v-307q0 -62 24 -89z" />
    <glyph glyph-name="uacute" unicode="&#xfa;" horiz-adv-x="521" 
d="M257 756l45 -53l-184 -154l-39 49zM165 84q23 -27 79 -27t131 35v388h82v-480h-57l-16 36q-92 -48 -167 -48q-77 0 -117 44t-40 121v327h81v-307q0 -62 24 -89z" />
    <glyph glyph-name="ucircumflex" unicode="&#xfb;" horiz-adv-x="521" 
d="M263 745l158 -172l-45 -43l-119 129l-119 -126l-43 38zM165 84q23 -27 79 -27t131 35v388h82v-480h-57l-16 36q-92 -48 -167 -48q-77 0 -117 44t-40 121v327h81v-307q0 -62 24 -89z" />
    <glyph glyph-name="udieresis" unicode="&#xfc;" horiz-adv-x="521" 
d="M236 693h91v-90h-91v90zM17 693h91v-90h-91v90zM165 84q23 -27 79 -27t131 35v388h82v-480h-57l-16 36q-92 -48 -167 -48q-77 0 -117 44t-40 121v327h81v-307q0 -62 24 -89z" />
    <glyph glyph-name="yacute" unicode="&#xfd;" horiz-adv-x="507" 
d="M374 756l45 -53l-184 -154l-39 49zM405 482h76l-276 -741h-85l99 240l-197 501h81l151 -409z" />
    <glyph glyph-name="thorn" unicode="&#xfe;" horiz-adv-x="596" 
d="M93 694h80v-262q48 53 126 57h14q44 0 85 -16q47 -19 80 -58q55 -66 55 -169.5t-60 -177.5q-33 -40 -79 -61q-41 -18 -86 -18h-13q-73 4 -122 52v-300h-80v953zM310 58q60 5 102.5 50t42.5 118.5t-25 113.5q-50 80 -130 81q-55 0 -90 -38q-42 -44 -42 -137t22 -127
q39 -61 109 -61h11z" />
    <glyph glyph-name="ydieresis" unicode="&#xff;" horiz-adv-x="507" 
d="M346 693h91v-90h-91v90zM127 693h91v-90h-91v90zM405 482h76l-276 -741h-85l99 240l-197 501h81l151 -409z" />
    <glyph glyph-name="Amacron" unicode="&#x100;" horiz-adv-x="648" 
d="M145 829h361v-63h-361v63zM277 694h94l247 -694h-84l-70 202h-287l-70 -202h-77zM321 613l-119 -339h236z" />
    <glyph glyph-name="amacron" unicode="&#x101;" horiz-adv-x="491" 
d="M129 651h260v-63h-260v63zM73 459q78 30 162.5 30t125 -27t53.5 -60.5t13 -88.5v-313h-61l-18 45q-67 -57 -148 -57q-8 0 -16 1q-52 3 -95.5 38t-43.5 92.5t34 94.5q34 35 84 49q72 18 182 21v4q0 51 -9 75q-21 57 -110 57q-44 0 -106 -14q-44 -11 -47 -12v65zM345 109
v115q-98 -3 -128 -9q-57 -13 -81 -51q-11 -18 -10 -35q0 -21 15 -41q11 -16 36 -28q14 -7 37 -7q18 0 38 4q50 9 93 52z" />
    <glyph glyph-name="Abreve" unicode="&#x102;" horiz-adv-x="648" 
d="M470 919l55 -38q-32 -42 -82 -78t-101 -41q-11 -1 -22 -1q-83 0 -138 60q-24 25 -39 66l60 32q25 -52 61 -73q31 -18 63 -18q42 0 84 31q31 22 59 60zM277 694h94l247 -694h-84l-70 202h-287l-70 -202h-77zM321 613l-119 -339h236z" />
    <glyph glyph-name="abreve" unicode="&#x103;" horiz-adv-x="491" 
d="M411 707l55 -38q-32 -42 -82 -78t-101 -41q-11 -1 -22 -1q-83 0 -138 60q-24 25 -39 66l60 32q25 -52 61 -73q31 -18 63 -18q42 0 84 31q31 22 59 60zM73 459q78 30 162.5 30t125 -27t53.5 -60.5t13 -88.5v-313h-61l-18 45q-67 -57 -148 -57q-8 0 -16 1q-52 3 -95.5 38
t-43.5 92.5t34 94.5q34 35 84 49q72 18 182 21v4q0 51 -9 75q-21 57 -110 57q-44 0 -106 -14q-44 -11 -47 -12v65zM345 109v115q-98 -3 -128 -9q-57 -13 -81 -51q-11 -18 -10 -35q0 -21 15 -41q11 -16 36 -28q14 -7 37 -7q18 0 38 4q50 9 93 52z" />
    <glyph glyph-name="Aogonek" unicode="&#x104;" horiz-adv-x="675" 
d="M310 694h94l247 -694h-7q-58 0 -95.5 -20t-66.5 -60q-28 -39 -28 -65q0 -27 12 -39q15 -17 39 -17q17 0 39 9q16 7 41 20l23 -44q-71 -50 -128 -50h-2q-39 2 -61 22q-34 32 -34 80q0 9 1 20q8 62 76 124q44 41 94 58l-57 164h-287l-70 -202h-77zM354 613l-119 -339h236z
" />
    <glyph glyph-name="aogonek" unicode="&#x105;" horiz-adv-x="521" 
d="M91 456q75 29 145 29q177 0 196 -121q2 -11 2 -50l-1 -336q-26 -13 -94 -49q-64 -36 -64 -83v-7q2 -20 15 -32q14 -13 36 -13q32 0 81 27l23 -40q-71 -46 -126 -46q-30 0 -55 14q-44 27 -44 76v8q5 95 170 171l-16 38q-76 -52 -142 -52q-46 0 -88 26q-67 40 -69 102v7
q0 57 43 95q30 27 86 40t165 14v19q0 42 -7 66t-35 42q-29 18 -77 18q-53 0 -129 -22zM354 97v116h-29q-93 -2 -121 -11q-30 -8 -48 -28q-17 -18 -16 -38q0 -40 32 -60q28 -18 67 -19h5q57 0 110 40z" />
    <glyph glyph-name="Cacute" unicode="&#x106;" horiz-adv-x="692" 
d="M512 965l34 -60l-250 -144l-30 53zM203 346q0 -166 132 -246q61 -35 143 -35t163 33l21 -66q-92 -42 -207 -42t-202 58q-28 18 -50 41q-94 100 -94 256q0 75 26 142q52 131 180 184q62 26 129.5 26t113.5 -9t95 -27l-23 -68q-51 18 -86.5 24t-84.5 6t-99.5 -21.5
t-84.5 -58.5q-72 -79 -72 -197z" />
    <glyph glyph-name="cacute" unicode="&#x107;" horiz-adv-x="467" 
d="M323 756l45 -53l-184 -154l-39 49zM297 491h5q58 0 125 -29l-20 -58q-55 19 -101 19h-6q-165 -7 -165 -176q0 -10 1 -21q6 -105 75 -145q32 -18 81 -24q11 -1 22 -1q40 0 88 16l19 -55q-69 -27 -131 -27h-5q-126 0 -185 83q-41 58 -43 165v5q0 104 58 174q61 73 182 74z
" />
    <glyph glyph-name="Ccircumflex" unicode="&#x108;" horiz-adv-x="692" 
d="M401 943l125 -139l-45 -43l-86 96l-89 -96l-43 38zM203 346q0 -166 132 -246q61 -35 143 -35t163 33l21 -66q-92 -42 -207 -42t-202 58q-28 18 -50 41q-94 100 -94 256q0 75 26 142q52 131 180 184q62 26 129.5 26t113.5 -9t95 -27l-23 -68q-51 18 -86.5 24t-84.5 6
t-99.5 -21.5t-84.5 -58.5q-72 -79 -72 -197z" />
    <glyph glyph-name="ccircumflex" unicode="&#x109;" horiz-adv-x="467" 
d="M265 731l125 -139l-45 -43l-86 96l-89 -96l-43 38zM297 491h5q58 0 125 -29l-20 -58q-55 19 -101 19h-6q-165 -7 -165 -176q0 -10 1 -21q6 -105 75 -145q32 -18 81 -24q11 -1 22 -1q40 0 88 16l19 -55q-69 -27 -131 -27h-5q-126 0 -185 83q-41 58 -43 165v5q0 104 58 174
q61 73 182 74z" />
    <glyph glyph-name="Cdotaccent" unicode="&#x10a;" horiz-adv-x="692" 
d="M356 894h102v-103h-102v103zM203 346q0 -166 132 -246q61 -35 143 -35t163 33l21 -66q-92 -42 -207 -42t-202 58q-28 18 -50 41q-94 100 -94 256q0 75 26 142q52 131 180 184q62 26 129.5 26t113.5 -9t95 -27l-23 -68q-51 18 -86.5 24t-84.5 6t-99.5 -21.5t-84.5 -58.5
q-72 -79 -72 -197z" />
    <glyph glyph-name="cdotaccent" unicode="&#x10b;" horiz-adv-x="467" 
d="M235 695h102v-103h-102v103zM297 491h5q58 0 125 -29l-20 -58q-55 19 -101 19h-6q-165 -7 -165 -176q0 -10 1 -21q6 -105 75 -145q32 -18 81 -24q11 -1 22 -1q40 0 88 16l19 -55q-69 -27 -131 -27h-5q-126 0 -185 83q-41 58 -43 165v5q0 104 58 174q61 73 182 74z" />
    <glyph glyph-name="Ccaron" unicode="&#x10c;" horiz-adv-x="692" 
d="M388 761l-158 172l45 43l119 -129l119 126l43 -38zM203 346q0 -166 132 -246q61 -35 143 -35t163 33l21 -66q-92 -42 -207 -42t-202 58q-28 18 -50 41q-94 100 -94 256q0 75 26 142q52 131 180 184q62 26 129.5 26t113.5 -9t95 -27l-23 -68q-51 18 -86.5 24t-84.5 6
t-99.5 -21.5t-84.5 -58.5q-72 -79 -72 -197z" />
    <glyph glyph-name="ccaron" unicode="&#x10d;" horiz-adv-x="467" 
d="M270 547l-158 172l45 43l119 -129l119 126l43 -38zM297 491h5q58 0 125 -29l-20 -58q-55 19 -101 19h-6q-165 -7 -165 -176q0 -10 1 -21q6 -105 75 -145q32 -18 81 -24q11 -1 22 -1q40 0 88 16l19 -55q-69 -27 -131 -27h-5q-126 0 -185 83q-41 58 -43 165v5q0 104 58 174
q61 73 182 74z" />
    <glyph glyph-name="Dcaron" unicode="&#x10e;" horiz-adv-x="762" 
d="M338 761l-158 172l45 43l119 -129l119 126l43 -38zM127 693h229q166 0 257.5 -88.5t91.5 -257t-97 -258t-284 -89.5h-197v693zM609 354q0 266 -274 266h-116v-546h117q157 0 223 90q50 68 50 190z" />
    <glyph glyph-name="dcaron" unicode="&#x10f;" horiz-adv-x="695" 
d="M590 738h81l-58 -191h-80zM297 59q55 0 109 30v318q-54 23 -108 23q-74 0 -115.5 -50.5t-41.5 -136.5t40 -135t116 -49zM406 471v200h83v-671h-59l-14 34q-66 -43 -137.5 -43t-121.5 31q-101 63 -101 214q0 125 67 191.5t167 66.5q61 0 116 -23z" />
    <glyph glyph-name="Dcroat" unicode="&#x110;" horiz-adv-x="783" 
d="M164 694h193q120 0 198 -32q79 -32 129 -110q45 -69 45 -180q0 -13 -1 -27q-8 -161 -93 -251t-259 -94h-212v321h-107v74h107v299zM247 321v-248h101q53 0 97.5 6.5t80.5 28.5q113 65 119 241v12q0 80 -37 141q-59 97 -162 115q-21 4 -65 4h-134v-226h125v-74h-125z" />
    <glyph glyph-name="dcroat" unicode="&#x111;" horiz-adv-x="604" 
d="M276 621h285v-63h-285v63zM297 59q55 0 109 30v318q-54 23 -108 23q-74 0 -115.5 -50.5t-41.5 -136.5t40 -135t116 -49zM406 471v200h83v-671h-59l-14 34q-66 -43 -137.5 -43t-121.5 31q-101 63 -101 214q0 125 67 191.5t167 66.5q61 0 116 -23z" />
    <glyph glyph-name="Emacron" unicode="&#x112;" horiz-adv-x="556" 
d="M124 829h358v-63h-358v63zM90 0v694h406v-73h-323v-227h296v-73h-296v-248h323v-73h-406z" />
    <glyph glyph-name="emacron" unicode="&#x113;" horiz-adv-x="523" 
d="M135.108 651h288.771v-73h-288.771v73zM471 218h-328q4 -68 46 -113t135 -45q64 0 133 22v-65q-75 -26 -155 -26q-179 0 -227 139q-16 45 -16 103q0 106 56 182q58 75 163 75q147 0 186 -132q12 -39 12 -88v-44zM145 281h249q0 65 -28.5 104.5t-80.5 39.5q-51 0 -81 -25
q-50 -40 -59 -119z" />
    <glyph glyph-name="Ebreve" unicode="&#x114;" horiz-adv-x="556" 
d="M438 919l55 -38q-32 -42 -82 -78t-101 -41q-11 -1 -22 -1q-83 0 -138 60q-24 25 -39 66l60 32q25 -52 61 -73q31 -18 63 -18q42 0 84 31q31 22 59 60zM90 0v694h406v-73h-323v-227h296v-73h-296v-248h323v-73h-406z" />
    <glyph glyph-name="ebreve" unicode="&#x115;" horiz-adv-x="523" 
d="M446 707l55 -38q-32 -42 -82 -78t-101 -41q-11 -1 -22 -1q-83 0 -138 60q-24 25 -39 66l60 32q25 -52 61 -73q31 -18 63 -18q42 0 84 31q31 22 59 60zM471 218h-328q4 -68 46 -113t135 -45q64 0 133 22v-65q-75 -26 -155 -26q-179 0 -227 139q-16 45 -16 103
q0 106 56 182q58 75 163 75q147 0 186 -132q12 -39 12 -88v-44zM145 281h249q0 65 -28.5 104.5t-80.5 39.5q-51 0 -81 -25q-50 -40 -59 -119z" />
    <glyph glyph-name="Edotaccent" unicode="&#x116;" horiz-adv-x="556" 
d="M237 894h102v-103h-102v103zM90 0v694h406v-73h-323v-227h296v-73h-296v-248h323v-73h-406z" />
    <glyph glyph-name="edotaccent" unicode="&#x117;" horiz-adv-x="523" 
d="M248 695h102v-103h-102v103zM471 218h-328q4 -68 46 -113t135 -45q64 0 133 22v-65q-75 -26 -155 -26q-179 0 -227 139q-16 45 -16 103q0 106 56 182q58 75 163 75q147 0 186 -132q12 -39 12 -88v-44zM145 281h249q0 65 -28.5 104.5t-80.5 39.5q-51 0 -81 -25
q-50 -40 -59 -119z" />
    <glyph glyph-name="Eogonek" unicode="&#x118;" horiz-adv-x="626" 
d="M396 -172q12 -28 54 -28q25 0 74 29l23 -44q-66 -49 -126 -50q-37 0 -57 15q-42 30 -42 79.5t26 89t78 75.5l9 6h-293v694h406v-73h-323v-227h296v-73h-296v-248h323v-59l-86 -61q-70 -53 -70 -101q0 -16 4 -24z" />
    <glyph glyph-name="eogonek" unicode="&#x119;" horiz-adv-x="538" 
d="M173 13q-110 53 -110 214q0 85 36 146.5t86.5 86.5t98.5 27h7q85 0 131 -49q37 -40 47 -100q6 -33 6 -92v-47h-332q1 -49 32 -83q57 -64 150 -64q49 0 109 18l14 -54q-49 -16 -84 -47q-74 -64 -74 -121v-8q3 -26 18 -36t35 -10q33 0 79 27l23 -41q-70 -46 -130 -46
q-32 0 -54 16q-41 29 -41 81q0 80 87 158h-12q-75 0 -122 24zM279 417h-9q-30 -1 -56 -17q-66 -43 -69 -141h252v14q-1 69 -27 102q-30 37 -91 42z" />
    <glyph glyph-name="Ecaron" unicode="&#x11a;" horiz-adv-x="556" 
d="M286 761l-158 172l45 43l119 -129l119 126l43 -38zM90 0v694h406v-73h-323v-227h296v-73h-296v-248h323v-73h-406z" />
    <glyph glyph-name="ecaron" unicode="&#x11b;" horiz-adv-x="523" 
d="M299 549l-158 172l45 43l119 -129l119 126l43 -38zM471 218h-328q4 -68 46 -113t135 -45q64 0 133 22v-65q-75 -26 -155 -26q-179 0 -227 139q-16 45 -16 103q0 106 56 182q58 75 163 75q147 0 186 -132q12 -39 12 -88v-44zM145 281h249q0 65 -28.5 104.5t-80.5 39.5
q-51 0 -81 -25q-50 -40 -59 -119z" />
    <glyph glyph-name="Gcircumflex" unicode="&#x11c;" horiz-adv-x="758" 
d="M417 943l125 -139l-45 -43l-86 96l-89 -96l-43 38zM576 601q-72 26 -135 26q-77 0 -138 -40q-122 -80 -125 -233q0 -3 -1 -6q0 -76 35 -141q36 -67 101 -105t153 -38t147 57v177h-197v68h278l-3 -272q-90 -103 -256 -103h-8q-94 1 -168.5 44t-119.5 129q-44 83 -45 178
q0 3 1 6q2 100 45 180.5t119 125.5q77 45 174 45q39 0 83 -7q76 -13 146 -52l-33 -62q-17 9 -53 23z" />
    <glyph glyph-name="gcircumflex" unicode="&#x11d;" horiz-adv-x="542" 
d="M298 731l125 -139l-45 -43l-86 96l-89 -96l-43 38zM202 475q39 16 81 16q54 0 114 -27l23 -10l10 28h56v-505q0 -64 -13.5 -104t-51 -76t-95.5 -51q-38 -10 -79 -10q-52 0 -108 17q-26 8 -39 14l22 58q63 -23 116 -23q42 0 76 14q80 32 90 126q2 14 2 67v14
q-52 -29 -112 -32h-15q-112 0 -176 91q-34 49 -39 119q-1 17 -1 33q0 115 57 181q33 39 82 60zM406 83v317q-65 27 -115 27q-46 0 -80 -23q-57 -38 -68 -120q-3 -21 -2 -40q0 -58 23 -105q20 -43 60 -65q33 -18 74 -18q8 0 18 1q52 5 90 26z" />
    <glyph glyph-name="Gbreve" unicode="&#x11e;" horiz-adv-x="758" 
d="M565 919l55 -38q-32 -42 -82 -78t-101 -41q-11 -1 -22 -1q-83 0 -138 60q-24 25 -39 66l60 32q25 -52 61 -73q31 -18 63 -18q42 0 84 31q31 22 59 60zM576 601q-72 26 -135 26q-77 0 -138 -40q-122 -80 -125 -233q0 -3 -1 -6q0 -76 35 -141q36 -67 101 -105t153 -38
t147 57v177h-197v68h278l-3 -272q-90 -103 -256 -103h-8q-94 1 -168.5 44t-119.5 129q-44 83 -45 178q0 3 1 6q2 100 45 180.5t119 125.5q77 45 174 45q39 0 83 -7q76 -13 146 -52l-33 -62q-17 9 -53 23z" />
    <glyph glyph-name="gbreve" unicode="&#x11f;" horiz-adv-x="542" 
d="M446 707l55 -38q-32 -42 -82 -78t-101 -41q-11 -1 -22 -1q-83 0 -138 60q-24 25 -39 66l60 32q25 -52 61 -73q31 -18 63 -18q42 0 84 31q31 22 59 60zM202 475q39 16 81 16q54 0 114 -27l23 -10l10 28h56v-505q0 -64 -13.5 -104t-51 -76t-95.5 -51q-38 -10 -79 -10
q-52 0 -108 17q-26 8 -39 14l22 58q63 -23 116 -23q42 0 76 14q80 32 90 126q2 14 2 67v14q-52 -29 -112 -32h-15q-112 0 -176 91q-34 49 -39 119q-1 17 -1 33q0 115 57 181q33 39 82 60zM406 83v317q-65 27 -115 27q-46 0 -80 -23q-57 -38 -68 -120q-3 -21 -2 -40
q0 -58 23 -105q20 -43 60 -65q33 -18 74 -18q8 0 18 1q52 5 90 26z" />
    <glyph glyph-name="Gdotaccent" unicode="&#x120;" horiz-adv-x="758" 
d="M379 894h102v-103h-102v103zM576 601q-72 26 -135 26q-77 0 -138 -40q-122 -80 -125 -233q0 -3 -1 -6q0 -76 35 -141q36 -67 101 -105t153 -38t147 57v177h-197v68h278l-3 -272q-90 -103 -256 -103h-8q-94 1 -168.5 44t-119.5 129q-44 83 -45 178q0 3 1 6q2 100 45 180.5
t119 125.5q77 45 174 45q39 0 83 -7q76 -13 146 -52l-33 -62q-17 9 -53 23z" />
    <glyph glyph-name="gdotaccent" unicode="&#x121;" horiz-adv-x="542" 
d="M236 695h102v-103h-102v103zM202 475q39 16 81 16q54 0 114 -27l23 -10l10 28h56v-505q0 -64 -13.5 -104t-51 -76t-95.5 -51q-38 -10 -79 -10q-52 0 -108 17q-26 8 -39 14l22 58q63 -23 116 -23q42 0 76 14q80 32 90 126q2 14 2 67v14q-52 -29 -112 -32h-15
q-112 0 -176 91q-34 49 -39 119q-1 17 -1 33q0 115 57 181q33 39 82 60zM406 83v317q-65 27 -115 27q-46 0 -80 -23q-57 -38 -68 -120q-3 -21 -2 -40q0 -58 23 -105q20 -43 60 -65q33 -18 74 -18q8 0 18 1q52 5 90 26z" />
    <glyph glyph-name="Gcommaaccent" unicode="&#x122;" horiz-adv-x="758" 
d="M423 -69h88l-78 -190h-87zM576 601q-72 26 -135 26q-77 0 -138 -40q-122 -80 -125 -233q0 -3 -1 -6q0 -76 35 -141q36 -67 101 -105t153 -38t147 57v177h-197v68h278l-3 -272q-90 -103 -256 -103h-8q-94 1 -168.5 44t-119.5 129q-44 83 -45 178q0 3 1 6q2 100 45 180.5
t119 125.5q77 45 174 45q39 0 83 -7q76 -13 146 -52l-33 -62q-17 9 -53 23z" />
    <glyph glyph-name="gcommaaccent" unicode="&#x123;" horiz-adv-x="542" 
d="M296 755h88l-78 -190h-87zM202 474q39 16 81 16q54 0 114 -27l23 -10l10 28h56v-505q0 -64 -13.5 -104t-51 -76t-95.5 -51q-38 -10 -79 -10q-52 0 -108 17q-26 8 -39 14l22 58q63 -23 116 -23q42 0 76 14q80 32 90 126q2 14 2 67v14q-52 -29 -112 -32h-15q-112 0 -176 91
q-34 49 -39 119q-1 17 -1 33q0 115 57 181q33 39 82 60zM406 82v317q-65 27 -115 27q-46 0 -80 -23q-57 -38 -68 -120q-3 -21 -2 -40q0 -58 23 -105q20 -43 60 -65q33 -18 74 -18q8 0 18 1q52 5 90 26z" />
    <glyph glyph-name="Hcircumflex" unicode="&#x124;" horiz-adv-x="740" 
d="M379 945l125 -139l-45 -43l-86 96l-89 -96l-43 38zM562 692h88v-692h-88v311h-385v-311h-87v692h87v-306h385v306z" />
    <glyph glyph-name="hcircumflex" unicode="&#x125;" horiz-adv-x="520" 
d="M261 945l125 -139l-45 -43l-86 96l-89 -96l-43 38zM379 310q0 62 -24.5 89.5t-81 27.5t-130.5 -36v-391h-83v670h83v-218q88 44 161.5 44t114.5 -44t41 -123v-329h-81v310z" />
    <glyph glyph-name="Hbar" unicode="&#x126;" horiz-adv-x="740" 
d="M40 621h684v-68h-684v68zM562 692h88v-692h-88v311h-385v-311h-87v692h87v-306h385v306z" />
    <glyph glyph-name="hbar" unicode="&#x127;" horiz-adv-x="520" 
d="M16 621h285v-63h-285v63zM379 310q0 62 -24.5 89.5t-81 27.5t-130.5 -36v-391h-83v670h83v-218q88 44 161.5 44t114.5 -44t41 -123v-329h-81v310z" />
    <glyph glyph-name="Itilde" unicode="&#x128;" horiz-adv-x="328" 
d="M70 773l-51 14l13 48q18 66 75 75q7 1 15 1q27 0 46 -19q5 -5 14 -17l23 -31q13 -18 22 -22q6 -2 11 -2q15 0 22 17q3 7 9 25l13 48l51 -14l-13 -47q-22 -79 -70 -90q-10 -2 -19 -2q-27 0 -46 20q-3 3 -15 17l-23 31q-16 20 -24 23q-6 2 -12 2q-20 0 -28 -29zM140 694h83
v-694h-83v694z" />
    <glyph glyph-name="itilde" unicode="&#x129;" horiz-adv-x="255" 
d="M22 558l-51 13l13 48q18 66 75 75q7 1 14 1q28 0 47 -19q5 -5 14 -17l23 -31q13 -18 22 -22q7 -2 11 -2q15 0 22 17q3 7 9 25l13 48l51 -14l-13 -47q-22 -79 -70 -90q-10 -2 -19 -2q-27 0 -46 20q-3 3 -15 17l-23 31q-16 20 -24 23q-6 2 -12 2q-20 0 -28 -29zM88 478h80
v-482h-80v482z" />
    <glyph glyph-name="Imacron" unicode="&#x12a;" horiz-adv-x="328" 
d="M82 829h200v-63h-200v63zM140 694h83v-694h-83v694z" />
    <glyph glyph-name="imacron" unicode="&#x12b;" horiz-adv-x="255" 
d="M39 651h178v-63h-178v63zM88 482h80v-482h-80v482z" />
    <glyph glyph-name="Ibreve" unicode="&#x12c;" horiz-adv-x="328" 
d="M272 914l45 -38q-29 -47 -68 -78q-40 -31 -80 -36q-12 -1 -22 -1q-80 0 -123 75q-14 26 -20 47l60 32q16 -46 49 -68q22 -15 46 -15q42 0 87 50q2 3 12 14q9 11 14 18zM120 694h83v-694h-83v694z" />
    <glyph glyph-name="ibreve" unicode="&#x12d;" horiz-adv-x="255" 
d="M251 700l45 -38q-30 -51 -70 -80t-78 -34q-12 -1 -23 -1q-81 0 -123 75q-14 27 -20 46l60 33q17 -45 50 -68q23 -15 46 -15q42 0 87 49q20 25 26 33zM88 482h80v-482h-80v482z" />
    <glyph glyph-name="Iogonek" unicode="&#x12e;" horiz-adv-x="356" 
d="M156 694h83v-679q-110 -60 -141 -120q-12 -23 -12 -43q0 -12 4 -22q11 -28 44 -30q2 0 3 -1q32 0 80 29l24 -44q-68 -49 -125 -50h-4q-34 0 -56 17q-41 32 -41 76q0 82 69 147q31 29 72 50v670z" />
    <glyph glyph-name="iogonek" unicode="&#x12f;" horiz-adv-x="255" 
d="M88 482h80v-471q-45 -16 -81 -44q-77 -61 -77 -119v-6q1 -21 16 -34q14 -14 36 -14q19 0 44 11l36 18l24 -43q-62 -47 -109 -50q-7 -1 -14 -1q-69 0 -94 56q-8 20 -8 51v12q2 40 39.5 97t107.5 95v442zM81 694h94v-92h-94v92z" />
    <glyph glyph-name="Idotaccent" unicode="&#x130;" horiz-adv-x="328" 
d="M130 894h102v-103h-102v103zM140 694h83v-694h-83v694z" />
    <glyph glyph-name="dotlessi" unicode="&#x131;" horiz-adv-x="255" 
d="M88 482h80v-482h-80v482z" />
    <glyph glyph-name="IJ" unicode="&#x132;" horiz-adv-x="821" 
d="M631 693h83v-485q0 -50 -9.5 -87.5t-38.5 -68.5q-54 -57 -153 -60h-13q-49 0 -95 11l13 70q39 -9 71 -9q37 0 67 12q55 22 70 76q5 20 5 52v489zM140 694h83v-694h-83v694z" />
    <glyph glyph-name="ij" unicode="&#x133;" horiz-adv-x="511" 
d="M421 -64q0 -60 -7 -78q-20 -51 -46.5 -77t-76.5 -44l-30 61q79 38 79 125v6v3l-1 550h80zM338 669h82v-83h-82v83zM60 483h82v-483h-82v483zM60 669h82v-83h-82v83z" />
    <glyph glyph-name="Jcircumflex" unicode="&#x134;" horiz-adv-x="449" 
d="M326 943l125 -139l-45 -43l-86 96l-89 -96l-43 38zM275 693h83v-485q0 -50 -9.5 -87.5t-38.5 -68.5q-54 -57 -153 -60h-13q-49 0 -95 11l13 70q39 -9 71 -9q37 0 67 12q55 22 70 76q5 20 5 52v489z" />
    <glyph glyph-name="jcircumflex" unicode="&#x135;" horiz-adv-x="255" 
d="M138 731l125 -139l-45 -43l-86 96l-89 -96l-43 38zM168 -64q0 -60 -7 -78q-20 -51 -46.5 -77t-76.5 -44l-30 61q79 38 79 125v6v3l-1 550h80z" />
    <glyph glyph-name="Kcommaaccent" unicode="&#x136;" horiz-adv-x="673" 
d="M303 -60h88l-78 -190h-87zM128 694h83v-694h-83v694zM516 694h104l-293 -331l312 -363h-107l-310 356z" />
    <glyph glyph-name="kcommaaccent" unicode="&#x137;" horiz-adv-x="503" 
d="M231 -60h88l-78 -190h-87zM68 672h80v-672h-80v672zM369 492h88l-210 -217l223 -275h-96l-218 267z" />
    <glyph glyph-name="kgreenlandic" unicode="&#x138;" horiz-adv-x="523" 
d="M88 482h80v-482h-80v482zM380 482h83l-196 -225l222 -257h-98l-215 247z" />
    <glyph glyph-name="Lacute" unicode="&#x139;" horiz-adv-x="537" 
d="M370 965l34 -60l-250 -144l-30 53zM128 694h83v-621h311v-73h-394v694z" />
    <glyph glyph-name="lacute" unicode="&#x13a;" horiz-adv-x="263" 
d="M324 1002l34 -60l-250 -144l-30 53zM162 70q14 -5 36 -5t58 11v-62q-3 -1 -16 -6t-22 -8q-28 -10 -67 -10t-67.5 31.5t-28.5 83.5v566h80v-537q-1 -54 27 -64z" />
    <glyph glyph-name="Lcommaaccent" unicode="&#x13b;" horiz-adv-x="537" 
d="M204 -60h88l-78 -190h-87zM128 694h83v-621h311v-73h-394v694z" />
    <glyph glyph-name="lcommaaccent" unicode="&#x13c;" horiz-adv-x="263" 
d="M112 -60h88l-78 -190h-87zM162 70q14 -5 36 -5t58 11v-62q-3 -1 -16 -6t-22 -8q-28 -10 -67 -10t-67.5 31.5t-28.5 83.5v566h80v-537q-1 -54 27 -64z" />
    <glyph glyph-name="Lcaron" unicode="&#x13d;" horiz-adv-x="537" 
d="M394 694h88l-78 -190h-87zM128 694h83v-621h311v-73h-394v694z" />
    <glyph glyph-name="lcaron" unicode="&#x13e;" horiz-adv-x="393" 
d="M288 738h81l-58 -191h-81zM162 70q14 -5 36 -5t58 11v-62q-3 -1 -16 -6t-22 -8q-28 -10 -67 -10t-67.5 31.5t-28.5 83.5v566h80v-537q-1 -54 27 -64z" />
    <glyph glyph-name="Ldot" unicode="&#x13f;" horiz-adv-x="537" 
d="M318 402h102v-102h-102v102zM128 694h83v-621h311v-73h-394v694z" />
    <glyph glyph-name="ldot" unicode="&#x140;" horiz-adv-x="402" 
d="M261 409h102v-102h-102v102zM162 70q14 -5 36 -5t58 11v-62q-3 -1 -16 -6t-22 -8q-28 -10 -67 -10t-67.5 31.5t-28.5 83.5v566h80v-537q-1 -54 27 -64z" />
    <glyph glyph-name="Lslash" unicode="&#x141;" horiz-adv-x="537" 
d="M57 314l281 163v-84l-281 -163v84zM128 694h83v-621h311v-73h-394v694z" />
    <glyph glyph-name="lslash" unicode="&#x142;" horiz-adv-x="335" 
d="M44 328l252 146v-73l-252 -146v73zM177 70q14 -5 36 -5t58 11v-62q-3 -1 -16 -6t-22 -8q-28 -10 -67 -10t-67.5 31.5t-28.5 83.5v566h80v-537q-1 -54 27 -64z" />
    <glyph glyph-name="Nacute" unicode="&#x143;" horiz-adv-x="746" 
d="M481 965l34 -60l-250 -144l-30 53zM90 694h105l378 -581v581h83v-694h-105l-378 582v-582h-83v694z" />
    <glyph glyph-name="nacute" unicode="&#x144;" horiz-adv-x="548" 
d="M388 755l34 -60l-250 -144l-30 53zM383 396q-24 27 -95 27t-146 -35v-388h-82v480h57l16 -36q91 48 183 48q172 0 172 -165v-327h-81v307q0 62 -24 89z" />
    <glyph glyph-name="Ncommaaccent" unicode="&#x145;" horiz-adv-x="746" 
d="M291 -60h88l-78 -190h-87zM90 694h105l378 -581v581h83v-694h-105l-378 582v-582h-83v694z" />
    <glyph glyph-name="ncommaaccent" unicode="&#x146;" horiz-adv-x="548" 
d="M225 -60h88l-78 -190h-87zM383 396q-24 27 -95 27t-146 -35v-388h-82v480h57l16 -36q91 48 183 48q172 0 172 -165v-327h-81v307q0 62 -24 89z" />
    <glyph glyph-name="Ncaron" unicode="&#x147;" horiz-adv-x="746" 
d="M390 761l-158 172l45 43l119 -129l119 126l43 -38zM90 694h105l378 -581v581h83v-694h-105l-378 582v-582h-83v694z" />
    <glyph glyph-name="ncaron" unicode="&#x148;" horiz-adv-x="548" 
d="M263 551l-158 172l45 43l119 -129l119 126l43 -38zM383 396q-24 27 -95 27t-146 -35v-388h-82v480h57l16 -36q91 48 183 48q172 0 172 -165v-327h-81v307q0 62 -24 89z" />
    <glyph glyph-name="napostrophe" unicode="&#x149;" horiz-adv-x="659" 
d="M36 694h74v-212h-74v212zM466 396q-24 27 -95 27t-146 -35v-388h-82v480h57l16 -36q91 48 183 48q172 0 172 -165v-327h-81v307q0 62 -24 89z" />
    <glyph glyph-name="Eng" unicode="&#x14a;" horiz-adv-x="804" 
d="M142 695h54l22 -47q60 28 113 46q84 29 151 29q77 0 131 -38q73 -52 86 -155q3 -29 3 -85v-453q0 -39 -4 -60q-10 -55 -59 -86q-25 -15 -61 -22q-14 -3 -33 -3q-44 0 -110 18l12 59q48 -9 76 -9q8 0 14 1q70 9 80 69q2 8 2 36v415q0 60 -6 98.5t-32 73.5q-45 60 -130 60
q-50 0 -115 -21q-42 -13 -111 -46v-575h-83v695z" />
    <glyph glyph-name="eng" unicode="&#x14b;" horiz-adv-x="574" 
d="M88 482h56l17 -40q60 33 121 45q26 6 49 6q64 0 108 -43q41 -40 46 -119q1 -12 1 -74v-265q0 -64 -14 -92q-28 -52 -76 -64q-21 -5 -46 -5q-33 0 -73 9l-35 9l12 59l38 -6q19 -3 34 -3q70 0 79 65q1 7 1 31v296q0 56 -17.5 83.5t-49.5 38.5q-20 6 -43 6q-55 0 -128 -37
v-382h-80v482z" />
    <glyph glyph-name="Omacron" unicode="&#x14c;" horiz-adv-x="811" 
d="M250 829h361v-63h-361v63zM419 626q-68 0 -121 -35.5t-83.5 -99.5t-30.5 -145t30.5 -145t83.5 -99.5t121 -35.5t121 35.5t83.5 99.5t30.5 144.5t-30 145t-83.5 100t-121.5 35.5zM90 345.5q0 106.5 40 187t115.5 124t173 43.5t173 -43.5t116 -125t40.5 -186.5t-41 -185.5
t-116 -124t-172.5 -43.5t-172.5 43.5t-115.5 123.5t-40.5 186.5z" />
    <glyph glyph-name="omacron" unicode="&#x14d;" horiz-adv-x="569" 
d="M107 651h361v-63h-361v63zM427 240q0 85 -40.5 135.5t-108.5 50.5t-108.5 -51.5t-40.5 -134.5t40.5 -134t109 -51t108.5 50t40 135zM107.5 56q-61.5 66 -61.5 183.5t62.5 184t171 66.5t169.5 -65.5t61 -183t-62.5 -184.5t-170.5 -67t-169.5 66z" />
    <glyph glyph-name="Obreve" unicode="&#x14e;" horiz-adv-x="811" 
d="M573 919l55 -38q-32 -42 -82 -78t-101 -41q-11 -1 -22 -1q-83 0 -138 60q-24 25 -39 66l60 32q25 -52 61 -73q31 -18 63 -18q42 0 84 31q31 22 59 60zM419 626q-68 0 -121 -35.5t-83.5 -99.5t-30.5 -145t30.5 -145t83.5 -99.5t121 -35.5t121 35.5t83.5 99.5t30.5 144.5
t-30 145t-83.5 100t-121.5 35.5zM90 345.5q0 106.5 40 187t115.5 124t173 43.5t173 -43.5t116 -125t40.5 -186.5t-41 -185.5t-116 -124t-172.5 -43.5t-172.5 43.5t-115.5 123.5t-40.5 186.5z" />
    <glyph glyph-name="obreve" unicode="&#x14f;" horiz-adv-x="569" 
d="M442 707l55 -38q-32 -42 -82 -78t-101 -41q-11 -1 -22 -1q-83 0 -138 60q-24 25 -39 66l60 32q25 -52 61 -73q31 -18 63 -18q42 0 84 31q31 22 59 60zM427 240q0 85 -40.5 135.5t-108.5 50.5t-108.5 -51.5t-40.5 -134.5t40.5 -134t109 -51t108.5 50t40 135zM107.5 56
q-61.5 66 -61.5 183.5t62.5 184t171 66.5t169.5 -65.5t61 -183t-62.5 -184.5t-170.5 -67t-169.5 66z" />
    <glyph glyph-name="Ohungarumlaut" unicode="&#x150;" horiz-adv-x="811" 
d="M442.078 974.121l39.0986 -56.8086l-236.487 -165.221l-34.5039 50.1836zM695.078 974.121l39.0986 -56.8086l-236.487 -165.221l-34.5039 50.1836zM419 626q-68 0 -121 -35.5t-83.5 -99.5t-30.5 -145t30.5 -145t83.5 -99.5t121 -35.5t121 35.5t83.5 99.5t30.5 144.5
t-30 145t-83.5 100t-121.5 35.5zM90 345.5q0 106.5 40 187t115.5 124t173 43.5t173 -43.5t116 -125t40.5 -186.5t-41 -185.5t-116 -124t-172.5 -43.5t-172.5 43.5t-115.5 123.5t-40.5 186.5z" />
    <glyph glyph-name="ohungarumlaut" unicode="&#x151;" horiz-adv-x="569" 
d="M292 756l45 -53l-184 -154l-39 49zM506 756l45 -53l-184 -154l-39 49zM427 240q0 85 -40.5 135.5t-108.5 50.5t-108.5 -51.5t-40.5 -134.5t40.5 -134t109 -51t108.5 50t40 135zM107.5 56q-61.5 66 -61.5 183.5t62.5 184t171 66.5t169.5 -65.5t61 -183t-62.5 -184.5
t-170.5 -67t-169.5 66z" />
    <glyph glyph-name="OE" unicode="&#x152;" horiz-adv-x="975" 
d="M393 616q-120 -19 -173 -123q-29 -57 -32 -147v-13q0 -81 36 -142q59 -96 162 -114q21 -4 65 -4h62v548h-28q-57 0 -92 -5zM340 679q61 15 179 15h378v-73h-301v-227h275v-73h-275v-248h301v-73h-422q-126 0 -199 31.5t-117 100.5q-54 83 -54 208v9q1 160 86 249
q55 58 149 81z" />
    <glyph glyph-name="oe" unicode="&#x153;" horiz-adv-x="880" 
d="M385 102q40 43 40 133q0 94 -44 140t-103 46t-97.5 -49t-38.5 -127q0 -52 18.5 -94.5t52 -67.5t69 -25t58.5 10t45 34zM501 259h239v10q0 78 -29 113t-87.5 35t-89.5 -47.5t-33 -110.5zM290 489q124 0 179 -96q61 94 175.5 94t155.5 -107q8 -21 12.5 -47t4.5 -87v-47
h-318q1 -69 62 -114q42 -32 101.5 -32t113.5 17l13 -54q-72 -27 -146 -27q-130 0 -185 89q-62 -89 -177 -89q-98 0 -158 67.5t-60 181t61.5 182.5t165.5 69z" />
    <glyph glyph-name="Racute" unicode="&#x154;" 
d="M404 965l34 -60l-250 -144l-30 53zM307 290l-61 -1h-73v-289h-83v694h254q57 0 91.5 -10t61.5 -39q51 -54 51 -148.5t-62 -151.5q-36 -35 -94 -47l196 -298h-93zM173 362h83q61 0 83 2q86 8 114 72q12 27 12 56q0 25 -9 51q-23 60 -88 73q-25 5 -68 5h-127v-259z" />
    <glyph glyph-name="racute" unicode="&#x155;" horiz-adv-x="391" 
d="M296 756l45 -53l-184 -154l-39 49zM148 481l16 -40q64 49 134 49q34 0 66 -9v-79h-10q-40 16 -73 16q-57 0 -110 -35v-383h-83v481h60z" />
    <glyph glyph-name="Rcommaaccent" unicode="&#x156;" 
d="M175 -60h88l-78 -190h-87zM307 290l-61 -1h-73v-289h-83v694h254q57 0 91.5 -10t61.5 -39q51 -54 51 -148.5t-62 -151.5q-36 -35 -94 -47l196 -298h-93zM173 362h83q61 0 83 2q86 8 114 72q12 27 12 56q0 25 -9 51q-23 60 -88 73q-25 5 -68 5h-127v-259z" />
    <glyph glyph-name="rcommaaccent" unicode="&#x157;" horiz-adv-x="391" 
d="M90 -60h88l-78 -190h-87zM148 481l16 -40q64 49 134 49q34 0 66 -9v-79h-10q-40 16 -73 16q-57 0 -110 -35v-383h-83v481h60z" />
    <glyph glyph-name="Rcaron" unicode="&#x158;" 
d="M289 761l-158 172l45 43l119 -129l119 126l43 -38zM307 290l-61 -1h-73v-289h-83v694h254q57 0 91.5 -10t61.5 -39q51 -54 51 -148.5t-62 -151.5q-36 -35 -94 -47l196 -298h-93zM173 362h83q61 0 83 2q86 8 114 72q12 27 12 56q0 25 -9 51q-23 60 -88 73q-25 5 -68 5
h-127v-259z" />
    <glyph glyph-name="rcaron" unicode="&#x159;" horiz-adv-x="391" 
d="M240 549l-158 172l45 43l119 -129l119 126l43 -38zM148 481l16 -40q64 49 134 49q34 0 66 -9v-79h-10q-40 16 -73 16q-57 0 -110 -35v-383h-83v481h60z" />
    <glyph glyph-name="Sacute" unicode="&#x15a;" horiz-adv-x="599" 
d="M399 965l34 -60l-250 -144l-30 53zM94 576q67 124 260 124q71 0 162 -28l-27 -75q-87 25 -156 25t-118.5 -30t-49.5 -80.5t55.5 -79t112 -45.5t86.5 -32t62 -38q58 -43 58 -123q0 -58 -38 -110q-44 -57 -127 -81q-46 -12 -104.5 -12t-103.5 11t-106 35l29 81
q124 -46 195.5 -46t118 30t46.5 80q0 63 -74 96q-28 13 -68 26t-83 29t-75 35t-53.5 52.5t-21.5 76t20 79.5z" />
    <glyph glyph-name="sacute" unicode="&#x15b;" horiz-adv-x="497" 
d="M337 756l45 -53l-184 -154l-39 49zM249 58q44 0 75 16.5t31 48t-30 52t-63 30.5l-72 22q-46 18 -57.5 27.5t-19.5 16.5q-23 21 -29 61q-1 9 -1 18q0 30 15 59q19 37 76 60q48 18 105 18q62 0 135 -21v-67q-74 20 -120 20t-69.5 -5t-41 -21t-17.5 -34t7 -27q16 -22 66 -41
l43 -16q106 -38 126 -61q30 -32 33 -78v-9q0 -41 -25 -73q-50 -64 -161 -64t-176 28v73q85 -33 170 -33z" />
    <glyph glyph-name="Scircumflex" unicode="&#x15c;" horiz-adv-x="599" 
d="M292 943l125 -139l-45 -43l-86 96l-89 -96l-43 38zM94 576q67 124 260 124q71 0 162 -28l-27 -75q-87 25 -156 25t-118.5 -30t-49.5 -80.5t55.5 -79t112 -45.5t86.5 -32t62 -38q58 -43 58 -123q0 -58 -38 -110q-44 -57 -127 -81q-46 -12 -104.5 -12t-103.5 11t-106 35
l29 81q124 -46 195.5 -46t118 30t46.5 80q0 63 -74 96q-28 13 -68 26t-83 29t-75 35t-53.5 52.5t-21.5 76t20 79.5z" />
    <glyph glyph-name="scircumflex" unicode="&#x15d;" horiz-adv-x="497" 
d="M278 731l125 -139l-45 -43l-86 96l-89 -96l-43 38zM249 58q44 0 75 16.5t31 48t-30 52t-63 30.5l-72 22q-46 18 -57.5 27.5t-19.5 16.5q-23 21 -29 61q-1 9 -1 18q0 30 15 59q19 37 76 60q48 18 105 18q62 0 135 -21v-67q-74 20 -120 20t-69.5 -5t-41 -21t-17.5 -34
t7 -27q16 -22 66 -41l43 -16q106 -38 126 -61q30 -32 33 -78v-9q0 -41 -25 -73q-50 -64 -161 -64t-176 28v73q85 -33 170 -33z" />
    <glyph glyph-name="Scedilla" unicode="&#x15e;" horiz-adv-x="599" 
d="M266 12l71 -3l-19 -75q35 -11 48 -19q36 -21 40 -65v-9q0 -39 -36 -67q-28 -22 -68 -21q-18 0 -39 4q-21 5 -60 16l-17 5l15 51l14 -4q67 -20 88 -20q36 3 44 21q4 9 4 16q-1 8 -5 14q-8 12 -18 16t-26 9l-66 20zM94 576q67 124 260 124q71 0 162 -28l-27 -75
q-87 25 -156 25t-118.5 -30t-49.5 -80.5t55.5 -79t112 -45.5t86.5 -32t62 -38q58 -43 58 -123q0 -58 -38 -110q-44 -57 -127 -81q-46 -12 -104.5 -12t-103.5 11t-106 35l29 81q124 -46 195.5 -46t118 30t46.5 80q0 63 -74 96q-28 13 -68 26t-83 29t-75 35t-53.5 52.5
t-21.5 76t20 79.5z" />
    <glyph glyph-name="scedilla" unicode="&#x15f;" horiz-adv-x="497" 
d="M219 11h62l-19 -77l12 -4q28 -9 40 -16q34 -19 38 -63v-8q0 -39 -34 -65q-26 -20 -65 -21q-18 0 -40 5q-16 4 -56 15l-17 5l13 45l15 -5q60 -18 84 -18q40 2 49 26q3 7 3 13q0 9 -7 17q-12 13 -22 17.5t-23 8.5l-61 19zM249 58q44 0 75 16.5t31 48t-30 52t-63 30.5
l-72 22q-46 18 -57.5 27.5t-19.5 16.5q-23 21 -29 61q-1 9 -1 18q0 30 15 59q19 37 76 60q48 18 105 18q62 0 135 -21v-67q-74 20 -120 20t-69.5 -5t-41 -21t-17.5 -34t7 -27q16 -22 66 -41l43 -16q106 -38 126 -61q30 -32 33 -78v-9q0 -41 -25 -73q-50 -64 -161 -64
t-176 28v73q85 -33 170 -33z" />
    <glyph glyph-name="Scaron" unicode="&#x160;" horiz-adv-x="599" 
d="M303 761l-158 172l45 43l119 -129l119 126l43 -38zM94 576q67 124 260 124q71 0 162 -28l-27 -75q-87 25 -156 25t-118.5 -30t-49.5 -80.5t55.5 -79t112 -45.5t86.5 -32t62 -38q58 -43 58 -123q0 -58 -38 -110q-44 -57 -127 -81q-46 -12 -104.5 -12t-103.5 11t-106 35
l29 81q124 -46 195.5 -46t118 30t46.5 80q0 63 -74 96q-28 13 -68 26t-83 29t-75 35t-53.5 52.5t-21.5 76t20 79.5z" />
    <glyph glyph-name="scaron" unicode="&#x161;" horiz-adv-x="497" 
d="M265 549l-158 172l45 43l119 -129l119 126l43 -38zM249 58q44 0 75 16.5t31 48t-30 52t-63 30.5l-72 22q-46 18 -57.5 27.5t-19.5 16.5q-23 21 -29 61q-1 9 -1 18q0 30 15 59q19 37 76 60q48 18 105 18q62 0 135 -21v-67q-74 20 -120 20t-69.5 -5t-41 -21t-17.5 -34
t7 -27q16 -22 66 -41l43 -16q106 -38 126 -61q30 -32 33 -78v-9q0 -41 -25 -73q-50 -64 -161 -64t-176 28v73q85 -33 170 -33z" />
    <glyph glyph-name="Tcommaaccent" unicode="&#x162;" horiz-adv-x="590" 
d="M42 694h546v-73h-232v-543q0 -49 -2.5 -69t-12.5 -53l-8 -27q50 -15 71 -47q13 -19 12 -39q0 -13 -4 -25q-12 -32 -35 -48q-29 -21 -68 -21q-19 0 -40 5q-22 6 -57 16l-17 5l15 51l15 -5q68 -20 85 -20q38 -1 47 21q3 8 3 16q0 12 -10 22q-8 8 -43 19l-61 19l15 54
q10 37 11 53t1 68v548h-231v73z" />
    <glyph glyph-name="tcommaaccent" unicode="&#x163;" horiz-adv-x="387" 
d="M173 10h62l-19 -77l12 -4q28 -9 40 -16q34 -19 38 -63v-8q0 -39 -34 -65q-26 -20 -65 -21q-18 0 -40 5q-16 4 -56 15l-17 5l13 45l15 -5q60 -18 84 -18q40 2 49 26q3 7 3 13q0 9 -7 17q-12 13 -22 17.5t-23 8.5l-61 19zM25 415v68h81v120l81 4v-124h160v-68h-160v-259
q-1 -53 17 -75t60 -22t83 11v-61q-55 -18 -106 -18q-73 0 -104 40t-31 119v265h-81z" />
    <glyph glyph-name="Tcaron" unicode="&#x164;" horiz-adv-x="585" 
d="M317 761l-158 172l45 43l119 -129l119 126l43 -38zM38 694h546v-73h-232v-621h-83v621h-231v73z" />
    <glyph glyph-name="tcaron" unicode="&#x165;" horiz-adv-x="387" 
d="M310 746h88l-78 -190h-87zM25 415v68h81v120l81 4v-124h160v-68h-160v-259q-1 -53 17 -75t60 -22t83 11v-61q-55 -18 -106 -18q-73 0 -104 40t-31 119v265h-81z" />
    <glyph glyph-name="Tbar" unicode="&#x166;" horiz-adv-x="585" 
d="M120 368h407v-74h-407v74zM38 694h546v-73h-232v-621h-83v621h-231v73z" />
    <glyph glyph-name="tbar" unicode="&#x167;" horiz-adv-x="387" 
d="M8 287h292v-53h-292v53zM25 415v68h81v120l81 4v-124h160v-68h-160v-259q-1 -53 17 -75t60 -22t83 11v-61q-55 -18 -106 -18q-73 0 -104 40t-31 119v265h-81z" />
    <glyph glyph-name="Utilde" unicode="&#x168;" horiz-adv-x="709" 
d="M495 910l52 -23l-13 -26q-22 -45 -39 -64q-33 -36 -72 -36q-18 0 -37 8q-29 11 -59.5 40.5t-38.5 34.5q-11 6 -22 6q-28 0 -49 -42l-23 -47l-52 23l14 27q22 45 38 63q33 36 72 36q18 0 38 -8q28 -11 57 -39.5t40 -34.5t22 -6q28 0 49 42zM90 265l1 38v391h83v-450
q0 -45 8 -74q6 -30 30 -56q47 -52 142 -52t144 55q22 25 29.5 53.5t7.5 73.5v450h83v-429l1 -42q-2 -97 -44 -150q-65 -83 -221 -83t-221 83q-43 52 -43 150v42z" />
    <glyph glyph-name="utilde" unicode="&#x169;" horiz-adv-x="521" 
d="M439 696l52 -23l-13 -26q-22 -45 -39 -64q-33 -36 -72 -36q-18 0 -37 8q-29 11 -59.5 40.5t-38.5 34.5q-11 6 -22 6q-28 0 -49 -42l-23 -47l-52 23l14 27q22 45 38 63q33 36 72 36q18 0 38 -8q28 -11 57 -39.5t40 -34.5t22 -6q28 0 49 42zM165 84q23 -27 79 -27t131 35
v388h82v-480h-57l-16 36q-92 -48 -167 -48q-77 0 -117 44t-40 121v327h81v-307q0 -62 24 -89z" />
    <glyph glyph-name="Umacron" unicode="&#x16a;" horiz-adv-x="709" 
d="M142 829h405v-63h-405v63zM90 265l1 38v391h83v-450q0 -45 8 -74q6 -30 30 -56q47 -52 142 -52t144 55q22 25 29.5 53.5t7.5 73.5v450h83v-429l1 -42q-2 -97 -44 -150q-65 -83 -221 -83t-221 83q-43 52 -43 150v42z" />
    <glyph glyph-name="umacron" unicode="&#x16b;" horiz-adv-x="521" 
d="M26 651h292v-63h-292v63zM165 84q23 -27 79 -27t131 35v388h82v-480h-57l-16 36q-92 -48 -167 -48q-77 0 -117 44t-40 121v327h81v-307q0 -62 24 -89z" />
    <glyph glyph-name="Ubreve" unicode="&#x16c;" horiz-adv-x="709" 
d="M502 923l55 -38q-32 -42 -82 -78t-101 -41q-11 -1 -22 -1q-83 0 -138 60q-24 25 -39 66l60 32q25 -52 61 -73q31 -18 63 -18q42 0 84 31q31 22 59 60zM90 265l1 38v391h83v-450q0 -45 8 -74q6 -30 30 -56q47 -52 142 -52t144 55q22 25 29.5 53.5t7.5 73.5v450h83v-429
l1 -42q-2 -97 -44 -150q-65 -83 -221 -83t-221 83q-43 52 -43 150v42z" />
    <glyph glyph-name="ubreve" unicode="&#x16d;" horiz-adv-x="521" 
d="M402 709l55 -38q-32 -42 -82 -78t-101 -41q-11 -1 -22 -1q-83 0 -138 60q-24 25 -39 66l60 32q25 -52 61 -73q31 -18 63 -18q42 0 84 31q31 22 59 60zM165 84q23 -27 79 -27t131 35v388h82v-480h-57l-16 36q-92 -48 -167 -48q-77 0 -117 44t-40 121v327h81v-307
q0 -62 24 -89z" />
    <glyph glyph-name="Uring" unicode="&#x16e;" horiz-adv-x="709" 
d="M389 825q18 19 18 45t-18 46t-44.5 20t-44.5 -19t-18 -46.5t17.5 -46t44.5 -18.5t45 19zM420 793q-32 -32 -75.5 -32t-75 31.5t-31.5 78t31.5 78t75 31.5t75.5 -32t32 -77.5t-32 -77.5zM90 265l1 38v391h83v-450q0 -45 8 -74q6 -30 30 -56q47 -52 142 -52t144 55
q22 25 29.5 53.5t7.5 73.5v450h83v-429l1 -42q-2 -97 -44 -150q-65 -83 -221 -83t-221 83q-43 52 -43 150v42z" />
    <glyph glyph-name="uring" unicode="&#x16f;" horiz-adv-x="521" 
d="M307 613q18 19 18 45t-18 46t-44.5 20t-44.5 -19t-18 -46.5t17.5 -46t44.5 -18.5t45 19zM338 581q-32 -32 -75.5 -32t-75 31.5t-31.5 78t31.5 78t75 31.5t75.5 -32t32 -77.5t-32 -77.5zM165 84q23 -27 79 -27t131 35v388h82v-480h-57l-16 36q-92 -48 -167 -48
q-77 0 -117 44t-40 121v327h81v-307q0 -62 24 -89z" />
    <glyph glyph-name="Uhungarumlaut" unicode="&#x170;" horiz-adv-x="709" 
d="M373.078 969.121l39.0986 -56.8086l-236.487 -165.221l-34.5039 50.1836zM626.078 969.121l39.0986 -56.8086l-236.487 -165.221l-34.5039 50.1836zM90 265l1 38v391h83v-450q0 -45 8 -74q6 -30 30 -56q47 -52 142 -52t144 55q22 25 29.5 53.5t7.5 73.5v450h83v-429
l1 -42q-2 -97 -44 -150q-65 -83 -221 -83t-221 83q-43 52 -43 150v42z" />
    <glyph glyph-name="uhungarumlaut" unicode="&#x171;" horiz-adv-x="521" 
d="M410 756l45 -53l-184 -154l-39 49zM186 756l45 -53l-184 -154l-39 49zM165 84q23 -27 79 -27t131 35v388h82v-480h-57l-16 36q-92 -48 -167 -48q-77 0 -117 44t-40 121v327h81v-307q0 -62 24 -89z" />
    <glyph glyph-name="Uogonek" unicode="&#x172;" horiz-adv-x="771" 
d="M141 255l1 48v391h83v-450q0 -45 7 -74q8 -30 32 -56q47 -52 141.5 -52t143.5 55q22 25 29.5 53.5t7.5 73.5v450h83v-471q-1 -130 -75 -181q-24 -16 -75.5 -41.5t-76.5 -51.5q-51 -55 -51 -96q0 -5 1 -10q3 -19 15 -31q15 -15 36 -15q32 0 80 32l24 -45q-64 -49 -125 -50
h-4q-37 0 -59 17q-38 32 -38 83t25 90.5t54 64.5q-106 0 -170 43q-78 52 -87 155q-2 21 -2 68z" />
    <glyph glyph-name="uogonek" unicode="&#x173;" horiz-adv-x="576" 
d="M409 482h80v-504q-64 -33 -101 -54q-36 -20 -52 -56q-6 -13 -7 -25q0 -20 18 -36q14 -12 36 -12q32 0 80 26l23 -40q-66 -43 -111 -45q-6 0 -12 -1q-36 0 -56 13q-46 26 -46 79v7q6 96 170 169l-15 37q-58 -33 -121 -45q-26 -5 -49 -5q-66 0 -109 42q-42 39 -48 118
q-1 14 -1 75l2 257h80v-291q0 -101 68 -123q20 -6 42 -6q55 0 129 38v382z" />
    <glyph glyph-name="Wcircumflex" unicode="&#x174;" horiz-adv-x="1005" 
d="M509 945l125 -139l-45 -43l-86 96l-89 -96l-43 38zM25 694h89l175 -583l175 583h84l180 -583l170 583h82l-208 -694h-88l-183 580l-170 -580h-88z" />
    <glyph glyph-name="wcircumflex" unicode="&#x175;" horiz-adv-x="817" 
d="M430 733l125 -139l-45 -43l-86 96l-89 -96l-43 38zM27 482h85l131 -404l129 404h79l124 -404l131 404h85l-176 -482h-81l-126 391l-129 -391h-76z" />
    <glyph glyph-name="Ycircumflex" unicode="&#x176;" horiz-adv-x="609" 
d="M327 943l125 -139l-45 -43l-86 96l-89 -96l-43 38zM44 694h98l177 -287l180 287h93l-236 -365v-329h-83v329z" />
    <glyph glyph-name="ycircumflex" unicode="&#x177;" horiz-adv-x="507" 
d="M298 731l125 -139l-45 -43l-86 96l-89 -96l-43 38zM405 482h76l-276 -741h-85l99 240l-197 501h81l151 -409z" />
    <glyph glyph-name="Ydieresis" unicode="&#x178;" horiz-adv-x="609" 
d="M379 926h91v-90h-91v90zM160 926h91v-90h-91v90zM44 694h98l177 -287l180 287h93l-236 -365v-329h-83v329z" />
    <glyph glyph-name="Zacute" unicode="&#x179;" horiz-adv-x="652" 
d="M461 965l34 -60l-250 -144l-30 53zM82 694h531v-53l-435 -568h448v-73h-558v54l426 567h-412v73z" />
    <glyph glyph-name="zacute" unicode="&#x17a;" horiz-adv-x="526" 
d="M335 756l45 -53l-184 -154l-39 49zM73 482h368v-42l-264 -377h276v-63h-380v42l263 377h-263v63z" />
    <glyph glyph-name="Zdotaccent" unicode="&#x17b;" horiz-adv-x="652" 
d="M288 894h102v-103h-102v103zM82 694h531v-53l-435 -568h448v-73h-558v54l426 567h-412v73z" />
    <glyph glyph-name="zdotaccent" unicode="&#x17c;" horiz-adv-x="526" 
d="M211 694h95v-92h-95v92zM73 482h368v-42l-264 -377h276v-63h-380v42l263 377h-263v63z" />
    <glyph glyph-name="Zcaron" unicode="&#x17d;" horiz-adv-x="652" 
d="M342 761l-158 172l45 43l119 -129l119 126l43 -38zM82 694h531v-53l-435 -568h448v-73h-558v54l426 567h-412v73z" />
    <glyph glyph-name="zcaron" unicode="&#x17e;" horiz-adv-x="526" 
d="M253 549l-158 172l45 43l119 -129l119 126l43 -38zM73 482h368v-42l-264 -377h276v-63h-380v42l263 377h-263v63z" />
    <glyph glyph-name="uni0191" unicode="&#x191;" horiz-adv-x="609" 
d="M-52 -257l12 60q44 -12 78 -12t57 12q47 24 47 91v800h401v-73h-318v-227h289v-73h-289v-430q0 -139 -121 -162q-22 -4 -46 -4q-51 0 -110 18z" />
    <glyph glyph-name="florin" unicode="&#x192;" horiz-adv-x="400" 
d="M215 -159l-3 -20q0 -3 -7 -19q-16 -40 -58 -60t-93 -20t-112 19l12 59q41 -11 71 -11q69 0 92 32q19 25 19 70v528h-83v63h83v53q0 61 20 95q41 68 143 68q53 0 114 -19l-12 -60q-45 12 -71 12q-26 -1 -44 -5q-35 -9 -48 -26q-16 -23 -18.5 -38.5t-2.5 -33.5v-46h161v-63
h-161v-549l-1 -17z" />
    <glyph glyph-name="uni022C" unicode="&#x22c;" horiz-adv-x="811" 
d="M228 1058h405v-73h-405v73zM571 916l52 -8l-8 -41q-9 -45 -23 -64q-27 -35 -65 -35q-19 0 -40 8q-22 9 -50 33l-17 15l-16 16q-18 16 -35 16h-5q-19 -2 -28 -24q-6 -13 -11 -40l-4 -25l-53 8l8 42q9 45 23 64q28 36 66 36q19 0 40 -9q20 -8 49 -33l17 -16q30 -30 52 -30
q10 0 19 6q11 9 15 19t9 37zM419 626q-68 0 -121 -35.5t-83.5 -99.5t-30.5 -145t30.5 -145t83.5 -99.5t121 -35.5t121 35.5t83.5 99.5t30.5 144.5t-30 145t-83.5 100t-121.5 35.5zM90 345.5q0 106.5 40 187t115.5 124t173 43.5t173 -43.5t116 -125t40.5 -186.5t-41 -185.5
t-116 -124t-172.5 -43.5t-172.5 43.5t-115.5 123.5t-40.5 186.5z" />
    <glyph glyph-name="uni0237" unicode="&#x237;" horiz-adv-x="255" 
d="M168 -64q0 -60 -7 -78q-20 -51 -46.5 -77t-76.5 -44l-30 61q79 38 79 125v6v3l-1 550h80z" />
    <glyph glyph-name="circumflex" unicode="&#x2c6;" horiz-adv-x="722" 
d="M354 752l125 -139l-45 -43l-86 96l-89 -96l-43 38z" />
    <glyph glyph-name="caron" unicode="&#x2c7;" horiz-adv-x="526" 
d="M253 549l-158 172l45 43l119 -129l119 126l43 -38z" />
    <glyph glyph-name="breve" unicode="&#x2d8;" horiz-adv-x="526" 
d="M399 707l55 -38q-32 -42 -82 -78t-101 -41q-11 -1 -22 -1q-83 0 -138 60q-24 25 -39 66l60 32q25 -52 61 -73q31 -18 63 -18q42 0 84 31q31 22 59 60z" />
    <glyph glyph-name="dotaccent" unicode="&#x2d9;" horiz-adv-x="585" 
d="M237 705h102v-103h-102v103z" />
    <glyph glyph-name="ring" unicode="&#x2da;" horiz-adv-x="529" 
d="M328 613q18 19 18 45t-18 46t-44.5 20t-44.5 -19t-18 -46.5t17.5 -46t44.5 -18.5t45 19zM359 581q-32 -32 -75.5 -32t-75 31.5t-31.5 78t31.5 78t75 31.5t75.5 -32t32 -77.5t-32 -77.5z" />
    <glyph glyph-name="ogonek" unicode="&#x2db;" horiz-adv-x="529" 
d="M438 70l15 -54q-45 -17 -79 -43q-79 -62 -79 -119v-6q2 -23 16 -36t35 -13q32 0 81 29l23 -44q-70 -51 -125 -51q-30 0 -55 15q-46 30 -46 83v6q3 57 36 106q66 97 178 127z" />
    <glyph glyph-name="tilde" unicode="&#x2dc;" horiz-adv-x="683" 
d="M502 753l52 -23l-13 -26q-22 -45 -39 -64q-33 -36 -72 -36q-18 0 -37 8q-29 11 -59.5 40.5t-38.5 34.5q-11 6 -22 6q-28 0 -49 -42l-23 -47l-52 23l14 27q22 45 38 63q33 36 72 36q18 0 38 -8q28 -11 57 -39.5t40 -34.5t22 -6q28 0 49 42z" />
    <glyph glyph-name="hungarumlaut" unicode="&#x2dd;" horiz-adv-x="806" 
d="M371.078 783.121l39.0986 -56.8086l-236.487 -165.221l-34.5039 50.1836zM624.078 783.121l39.0986 -56.8086l-236.487 -165.221l-34.5039 50.1836z" />
    <glyph glyph-name="uni02EE" unicode="&#x2ee;" horiz-adv-x="407" 
d="M54 738h90v-209h-90v209zM244 738h90v-209h-90v209z" />
    <glyph glyph-name="uni0302" unicode="&#x302;" horiz-adv-x="722" 
d="M354 752l158 -172l-45 -43l-119 129l-119 -126l-43 38z" />
    <glyph glyph-name="uni1E02" unicode="&#x1e02;" horiz-adv-x="632" 
d="M280 928h102v-103h-102v103zM173 630v-233l88 3q184 4 184 123q0 78 -79 100q-24 7 -60 7h-133zM173 333v-260h153q54 0 109 23q19 8 34 23q31 31 31 83q0 66 -55 104q-49 33 -129 34q-11 0 -22 -1zM90 694h244q96 0 143.5 -50.5t47.5 -116.5q0 -42 -28.5 -84t-61.5 -55
q64 -12 105.5 -62.5t41.5 -115.5q0 -87 -68 -148.5t-199 -61.5h-225v694z" />
    <glyph glyph-name="uni1E03" unicode="&#x1e03;" horiz-adv-x="553" 
d="M263 928h102v-103h-102v103zM257 59q76 0 116 49t40 135t-41.5 136.5t-115.5 50.5q-54 0 -108 -23v-318q54 -30 109 -30zM148 471q55 23 116 23q100 0 167 -66.5t67 -191.5q0 -151 -101 -214q-50 -31 -121.5 -31t-137.5 43l-14 -34h-59v671h83v-200z" />
    <glyph glyph-name="uni1E0A" unicode="&#x1e0a;" horiz-adv-x="762" 
d="M348 928h102v-103h-102v103zM127 693h229q166 0 257.5 -88.5t91.5 -257t-97 -258t-284 -89.5h-197v693zM609 354q0 266 -274 266h-116v-546h117q157 0 223 90q50 68 50 190z" />
    <glyph glyph-name="uni1E0B" unicode="&#x1e0b;" horiz-adv-x="576" 
d="M229 928h102v-103h-102v103zM297 59q55 0 109 30v318q-54 23 -108 23q-74 0 -115.5 -50.5t-41.5 -136.5t40 -135t116 -49zM406 471v200h83v-671h-59l-14 34q-66 -43 -137.5 -43t-121.5 31q-101 63 -101 214q0 125 67 191.5t167 66.5q61 0 116 -23z" />
    <glyph glyph-name="uni1E1E" unicode="&#x1e1e;" horiz-adv-x="551" 
d="M235 928h102v-103h-102v103zM173 621v-227h289v-73h-289v-321h-83v694h401v-73h-318z" />
    <glyph glyph-name="uni1E1F" unicode="&#x1e1f;" horiz-adv-x="372" 
d="M180 894h102v-103h-102v103zM110 622q43 76 145 76q51 0 117 -19l-13 -60q-45 13 -78 13q-22 0 -38 -6q-58 -20 -65 -67q-2 -14 -2 -31v-46h161v-63h-161l1 -419h-81l-1 419h-70v63h70v49q0 64 15 91z" />
    <glyph glyph-name="uni1E40" unicode="&#x1e40;" horiz-adv-x="855" 
d="M372 928h102v-103h-102v103zM90 694h117l222 -421l227 421h109v-694h-83v575l-213 -376h-83l-213 376v-575h-83v694z" />
    <glyph glyph-name="uni1E41" unicode="&#x1e41;" horiz-adv-x="783" 
d="M348 695h102v-103h-102v103zM425 383q5 -17 5 -56v-327h-81v307q0 44 -10 67q-21 45 -72 51q-6 1 -13 1q-47 0 -112 -37v-389h-82v480h57l16 -36q45 28 80 39q36 10 67 10q45 0 80 -21q24 -13 44 -42q63 42 98 52q38 11 71 11q45 0 80 -21q70 -42 70 -145v-327h-81v307
q0 44 -10 67q-21 45 -74 51q-6 1 -12 1q-50 0 -121 -43z" />
    <glyph glyph-name="uni1E56" unicode="&#x1e56;" horiz-adv-x="633" 
d="M283 928h102v-103h-102v103zM128 694h218q70 0 102 -6q54 -10 88 -43q52 -52 52 -130q0 -13 -1 -26q-15 -145 -128 -182q-59 -20 -157 -20q-42 0 -91 4v-291h-83v694zM211 364q49 -4 88 -4q20 0 38 1q53 3 76 9q52 13 76 64q14 29 15 60q0 23 -8 46q-24 69 -108 78
q-20 3 -87 3h-90v-257z" />
    <glyph glyph-name="uni1E57" unicode="&#x1e57;" horiz-adv-x="568" 
d="M262 695h102v-103h-102v103zM279 423q-55 0 -109 -30v-318q54 -23 108 -23q74 0 116 51t42 136t-40.5 134.5t-116.5 49.5zM170 11v-272h-83v742h59l15 -33q66 43 136 43t122 -32q102 -65 102 -213q0 -125 -69 -192t-166 -67q-59 0 -116 24z" />
    <glyph glyph-name="uni1E60" unicode="&#x1e60;" horiz-adv-x="599" 
d="M259 928h102v-103h-102v103zM94 576q67 124 260 124q71 0 162 -28l-27 -75q-87 25 -156 25t-118.5 -30t-49.5 -80.5t55.5 -79t112 -45.5t86.5 -32t62 -38q58 -43 58 -123q0 -58 -38 -110q-44 -57 -127 -81q-46 -12 -104.5 -12t-103.5 11t-106 35l29 81q124 -46 195.5 -46
t118 30t46.5 80q0 63 -74 96q-28 13 -68 26t-83 29t-75 35t-53.5 52.5t-21.5 76t20 79.5z" />
    <glyph glyph-name="uni1E61" unicode="&#x1e61;" horiz-adv-x="497" 
d="M216 695h102v-103h-102v103zM249 58q44 0 75 16.5t31 48t-30 52t-63 30.5l-72 22q-46 18 -57.5 27.5t-19.5 16.5q-23 21 -29 61q-1 9 -1 18q0 30 15 59q19 37 76 60q48 18 105 18q62 0 135 -21v-67q-74 20 -120 20t-69.5 -5t-41 -21t-17.5 -34t7 -27q16 -22 66 -41
l43 -16q106 -38 126 -61q30 -32 33 -78v-9q0 -41 -25 -73q-50 -64 -161 -64t-176 28v73q85 -33 170 -33z" />
    <glyph glyph-name="uni1E6A" unicode="&#x1e6a;" horiz-adv-x="585" 
d="M268 928h102v-103h-102v103zM38 694h546v-73h-232v-621h-83v621h-231v73z" />
    <glyph glyph-name="uni1E6B" unicode="&#x1e6b;" horiz-adv-x="387" 
d="M70 792h102v-103h-102v103zM25 415v68h81v120l81 4v-124h160v-68h-160v-259q-1 -53 17 -75t60 -22t83 11v-61q-55 -18 -106 -18q-73 0 -104 40t-31 119v265h-81z" />
    <glyph glyph-name="Wgrave" unicode="&#x1e80;" horiz-adv-x="1005" 
d="M429 941l247 -151l-31 -53l-250 144zM25 694h89l175 -583l175 583h84l180 -583l170 583h82l-208 -694h-88l-183 580l-170 -580h-88z" />
    <glyph glyph-name="wgrave" unicode="&#x1e81;" horiz-adv-x="817" 
d="M369 756l177 -158l-39 -49l-183 154zM27 482h85l131 -404l129 404h79l124 -404l131 404h85l-176 -482h-81l-126 391l-129 -391h-76z" />
    <glyph glyph-name="Wacute" unicode="&#x1e82;" horiz-adv-x="1005" 
d="M602 941l34 -60l-250 -144l-30 53zM25 694h89l175 -583l175 583h84l180 -583l170 583h82l-208 -694h-88l-183 580l-170 -580h-88z" />
    <glyph glyph-name="wacute" unicode="&#x1e83;" horiz-adv-x="817" 
d="M511 756l45 -53l-184 -154l-39 49zM27 482h85l131 -404l129 404h79l124 -404l131 404h85l-176 -482h-81l-126 391l-129 -391h-76z" />
    <glyph glyph-name="Wdieresis" unicode="&#x1e84;" horiz-adv-x="1005" 
d="M567 926h91v-90h-91v90zM348 926h91v-90h-91v90zM25 694h89l175 -583l175 583h84l180 -583l170 583h82l-208 -694h-88l-183 580l-170 -580h-88z" />
    <glyph glyph-name="wdieresis" unicode="&#x1e85;" horiz-adv-x="817" 
d="M478 694h91v-90h-91v90zM259 694h91v-90h-91v90zM27 482h85l131 -404l129 404h79l124 -404l131 404h85l-176 -482h-81l-126 391l-129 -391h-76z" />
    <glyph glyph-name="Ygrave" unicode="&#x1ef2;" horiz-adv-x="609" 
d="M220 941l247 -151l-31 -53l-250 144zM44 694h98l177 -287l180 287h93l-236 -365v-329h-83v329z" />
    <glyph glyph-name="ygrave" unicode="&#x1ef3;" horiz-adv-x="507" 
d="M217 756l178 -158l-39 -49l-184 154zM405 482h76l-276 -741h-85l99 240l-197 501h81l151 -409z" />
    <glyph glyph-name="endash" unicode="&#x2013;" horiz-adv-x="565" 
d="M0 355h566v-67h-566v67z" />
    <glyph glyph-name="emdash" unicode="&#x2014;" horiz-adv-x="675" 
d="M0 355h676v-67h-676v67z" />
    <glyph glyph-name="afii00208" unicode="&#x2015;" horiz-adv-x="781" 
d="M0 355h781v-67h-781v67z" />
    <glyph glyph-name="quoteleft" unicode="&#x2018;" horiz-adv-x="219" 
d="M44 694h95l61 -212h-95z" />
    <glyph glyph-name="quoteright" unicode="&#x2019;" horiz-adv-x="219" 
d="M81 694h95l-61 -212h-95z" />
    <glyph glyph-name="quotesinglbase" unicode="&#x201a;" horiz-adv-x="219" 
d="M81 106h95l-61 -211h-95z" />
    <glyph glyph-name="quotereversed" unicode="&#x201b;" horiz-adv-x="219" 
d="M139 694l61 -212h-95l-61 212h95z" />
    <glyph glyph-name="quotedblleft" unicode="&#x201c;" horiz-adv-x="405" 
d="M176 694l-61 -212h-95l61 212h95zM361 694l-61 -212h-95l61 212h95z" />
    <glyph glyph-name="quotedblright" unicode="&#x201d;" horiz-adv-x="405" 
d="M81 694h95l-61 -212h-95zM266 694h95l-61 -212h-95z" />
    <glyph glyph-name="quotedblbase" unicode="&#x201e;" horiz-adv-x="405" 
d="M81 104h95l-61 -211h-95zM266 104h95l-61 -211h-95z" />
    <glyph glyph-name="uni201F" unicode="&#x201f;" horiz-adv-x="405" 
d="M325 694l61 -212h-95l-62 212h96zM139 694l61 -212h-95l-61 212h95z" />
    <glyph glyph-name="dagger" unicode="&#x2020;" horiz-adv-x="459" 
d="M195 72v502l-112 -5v54l112 -5v120h70v-120l112 5v-54l-112 5v-502h-70z" />
    <glyph glyph-name="daggerdbl" unicode="&#x2021;" horiz-adv-x="459" 
d="M195 46v528l-112 -5v54l112 -5v120h70v-120l112 5v-54l-112 5v-528l112 5v-53l-112 4v-119h-70v119l-112 -4v53z" />
    <glyph glyph-name="bullet" unicode="&#x2022;" horiz-adv-x="680" 
d="M173 337q0 69 49 118t118 49t118 -49t49 -118t-49 -118t-118 -49t-118 49t-49 118z" />
    <glyph glyph-name="ellipsis" unicode="&#x2026;" horiz-adv-x="839" 
d="M640 103h102v-103h-102v103zM364 103h102v-103h-102v103zM88 103h102v-103h-102v103z" />
    <glyph glyph-name="perthousand" unicode="&#x2030;" horiz-adv-x="937" 
d="M223 519q0 39 -6.5 58t-20 30.5t-39 11.5t-43.5 -19.5t-18 -56.5q0 -65 22 -87q19 -17 42.5 -17t43 20.5t19.5 59.5zM160 666q79 0 103 -75q8 -27 8 -58q0 -64 -31.5 -101.5t-79.5 -37.5t-80 33.5t-32 101t33 102.5t79 35zM540 157q0 66 -27 89q-14 11 -39 11t-43.5 -20
t-18.5 -57q0 -62 23 -85q19 -17 43 -17t43 20t19 59zM547 281q41 -29 41 -101t-32 -110t-80 -38t-79.5 32.5t-31.5 101.5t33 103.5t75 34.5t74 -23zM830 215q-15 42 -66 42q-19 0 -37.5 -20t-18.5 -55q0 -64 23 -87q19 -17 43 -17t43 20t19 59.5t-6 57.5zM843 281
q41 -29 41 -101t-32 -110t-80 -38t-79.5 33.5t-31.5 101.5t33 102.5t75 34.5t74 -23zM515 694h83l-473 -694h-83z" />
    <glyph glyph-name="minute" unicode="&#x2032;" horiz-adv-x="197" 
d="M54 738h90v-209h-90v209z" />
    <glyph glyph-name="second" unicode="&#x2033;" horiz-adv-x="395" 
d="M252 738h90v-209h-90v209zM54 738h90v-209h-90v209z" />
    <glyph glyph-name="uni2034" unicode="&#x2034;" horiz-adv-x="593" 
d="M450 738h90v-209h-90v209zM252 738h90v-209h-90v209zM54 738h90v-209h-90v209z" />
    <glyph glyph-name="uni2035" unicode="&#x2035;" horiz-adv-x="197" 
d="M34 694h95l35 -212h-96z" />
    <glyph glyph-name="guilsinglleft" unicode="&#x2039;" horiz-adv-x="275" 
d="M161 482h90l-133 -178l133 -178h-90l-124 178z" />
    <glyph glyph-name="guilsinglright" unicode="&#x203a;" horiz-adv-x="275" 
d="M24 482h91l124 -178l-124 -178h-91l134 178z" />
    <glyph glyph-name="exclamdbl" unicode="&#x203c;" 
d="M434 694h83v-470h-83v470zM427 98h98v-98h-98v98zM117 694h83v-470h-83v470zM110 98h98v-98h-98v98z" />
    <glyph glyph-name="interrobang" unicode="&#x203d;" horiz-adv-x="510" 
d="M152 98h98v-98h-98v98zM49 668q71 34 147 34q231 0 232 -166q0 -80 -48 -138q-15 -17 -45 -42.5t-50 -45.5t-34 -51t-14 -61v-7h-73v336h73v-158l18 15q35 30 49 44q43 43 43 99.5t-54 84.5q-39 20 -94 20q-22 0 -46 -3q-47 -7 -79 -20z" />
    <glyph glyph-name="fraction" unicode="&#x2044;" horiz-adv-x="505" 
d="M411 694h85l-400 -694h-86z" />
    <glyph glyph-name="uni204B" unicode="&#x204b;" horiz-adv-x="653" 
d="M540 687q50 -50 50 -134q0 -46 -18.5 -95t-62.5 -82q-26 -19 -54 -28q-29 -9 -78 -13l-1 -335h-83v665h-118v-665h-83v738h263q68 0 110.5 -10.5t74.5 -40.5z" />
    <glyph glyph-name="Euro" unicode="&#x20ac;" horiz-adv-x="651" 
d="M133 246h-109v64h100q-1 12 -1 44t4 60h-71v64h86l3 10q46 131 162 184q58 27 136 27q77 0 161 -37l-22 -69q-83 32 -144 32q-110 0 -176 -83q-24 -30 -38 -64h219v-64h-239q-7 -32 -7 -56t2 -48h213v-64h-200q24 -72 84 -126t152 -54q67 0 142 30l23 -62
q-91 -44 -171 -44t-138 27q-134 63 -171 229z" />
    <glyph glyph-name="trademark" unicode="&#x2122;" horiz-adv-x="695" 
d="M187 460h-48v239h-85v39h218v-39h-85v-239zM337 738h57l84 -155l81 155h58v-278h-48v218l-78 -143h-33l-73 145v-220h-48v278z" />
    <glyph glyph-name="H18533" unicode="&#x25cf;" horiz-adv-x="680" 
d="M578 99h-476v476h476v-476z" />
    <glyph glyph-name="uniFB00" unicode="&#xfb00;" horiz-adv-x="720" 
d="M420 622q43 76 145 76q51 0 117 -19l-12 -60q-46 13 -79 13q-22 0 -38 -6q-56 -19 -65 -67q-2 -14 -2 -31v-46h162v-63h-162l1 -419h-81l-1 419h-219l1 -419h-81l-1 419h-70v63h70v49q0 64 15 91q43 76 145 76q51 0 117 -19l-13 -60q-45 13 -78 13q-22 0 -38 -6
q-58 -20 -65 -67q-2 -14 -2 -31v-46h219v49q0 64 15 91z" />
    <glyph glyph-name="uniFB01" unicode="&#xfb01;" horiz-adv-x="656" 
d="M460 483h82v-483h-82v483zM460 669h82v-83h-82v83zM110 622q43 76 145 76q51 0 117 -19l-13 -60q-45 13 -78 13q-22 0 -38 -6q-58 -20 -65 -67q-2 -14 -2 -31v-46h161v-63h-161l1 -419h-81l-1 419h-70v63h70v49q0 64 15 91z" />
    <glyph glyph-name="uniFB02" unicode="&#xfb02;" horiz-adv-x="635" 
d="M535 70q14 -5 36 -5t58 11v-62q-3 -1 -16 -6t-22 -8q-28 -10 -67 -10t-67.5 31.5t-28.5 83.5v566h80v-537q-1 -54 27 -64zM110 622q43 76 145 76q51 0 117 -19l-13 -60q-45 13 -78 13q-22 0 -38 -6q-58 -20 -65 -67q-2 -14 -2 -31v-46h161v-63h-161l1 -419h-81l-1 419
h-70v63h70v49q0 64 15 91z" />
    <glyph glyph-name="uniFB03" unicode="&#xfb03;" horiz-adv-x="932" 
d="M778 482h80v-482h-80v482zM770 694h95v-92h-95v92zM471 622q43 76 145 76q51 0 117 -19l-12 -60q-46 13 -79 13q-22 0 -38 -6q-56 -19 -65 -67q-2 -14 -2 -31v-46h162v-63h-162l1 -419h-81l-1 419h-239l1 -419h-81l-1 419h-70v63h70v49q0 64 15 91q43 76 145 76
q51 0 117 -19l-13 -60q-45 13 -78 13q-22 0 -38 -6q-58 -20 -65 -67q-2 -14 -2 -31v-46h239v49q0 64 15 91z" />
    <glyph glyph-name="uniFB04" unicode="&#xfb04;" horiz-adv-x="991" 
d="M982 76v-62q-3 -1 -16 -6t-22 -8q-28 -10 -67 -10t-67.5 31.5t-28.5 83.5v566h80v-537q0 -44 14 -56q16 -13 45 -13q26 0 62 11zM467 622q43 76 145 76q51 0 117 -19l-12 -60q-46 13 -79 13q-22 0 -38 -6q-56 -19 -65 -67q-2 -14 -2 -31v-46h162v-63h-162l1 -419h-81
l-1 419h-236l1 -419h-81l-1 419h-76v63h76v49q0 64 15 91q43 76 145 76q51 0 117 -19l-13 -60q-45 13 -78 13q-22 0 -38 -6q-58 -20 -65 -67q-2 -14 -2 -31v-46h236v49q0 64 15 91z" />
  </font>
</defs>
</svg>
